<?xml version="1.0" encoding="UTF-8"?>
<svg id="Layer_1" xmlns="http://www.w3.org/2000/svg" viewBox="0 0 1080 1080">
  <defs>
    <style>
      .cls-1, .cls-2 {
        fill: #1f3060;
      }

      .cls-3 {
        fill: none;
        stroke: #1f3060;
        stroke-miterlimit: 10;
        stroke-width: 9px;
      }

      .cls-2 {
        opacity: .18;
      }
    </style>
  </defs>
  <circle class="cls-2" cx="306.1" cy="192.88" r="363.31"/>
  <circle class="cls-2" cx="132.45" cy="341.93" r="363.31"/>
  <g>
    <path class="cls-1" d="M252.68,340.48c.01-46.73.01-93.46,0-140.2,0-.79.03-1.6-.05-2.39-.27-2.87-1.86-4.78-4.47-5.85-2.27-.93-4.36-.21-6.48.64-14.75,5.92-29.49,11.84-44.24,17.76-22.13,8.87-44.27,17.75-66.4,26.64-1.49.6-2.99.88-4.61.88-9.31-.05-18.63.01-27.94-.04-6.01-.04-11.14,1.99-15.42,6.19-3.31,3.25-4.95,7.36-6.01,11.75v31.26c.09.12.23.21.26.34,1.83,8.97,7.76,13.42,16.37,14.95,3.44.62,6.92.31,10.37.3,1.3,0,1.78.39,1.9,1.62.18,1.87.48,3.73.74,5.58,2.4,16.81,4.83,33.61,7.19,50.42.69,4.89,3.09,7.22,8,7.23,8.66.03,17.33.03,25.99,0,5.26-.01,8.15-3.01,7.62-8.19-1.16-11.23-2.47-22.42-3.71-33.62-.52-4.72-1.05-9.45-1.6-14.38.84.31,1.44.52,2.04.75,15.2,6.1,30.43,12.19,45.64,18.29,3.89,1.56,7.78,3.12,11.67,4.67,11.02,4.41,22.03,8.87,33.06,13.25,4.28,1.7,8.39-.03,9.72-3.99.43-1.26.35-2.57.35-3.87ZM97.62,288.85c-1.25.01-2.45-.18-3.61-.58-1.95-.69-3.08-2.04-3.08-4.22.01-8.45-.05-16.9.03-25.35.03-3.88,3.02-6.78,6.93-6.82,7.93-.04,15.86.03,23.79-.05,1.42-.01,1.65.52,1.64,1.78-.05,5.63-.03,11.27-.03,16.9s-.04,11.12.04,16.69c.01,1.35-.39,1.69-1.7,1.67-8.01-.05-16.01-.03-24.02-.03ZM140.48,353.3c-.93.8-3.01.27-4.58.31-.71.03-1.44.01-2.17.01-1.3,0-2.61-.17-3.88.04-2.26.35-3.01-.48-3.32-2.74-2.09-15.37-4.31-30.71-6.53-46.07-.23-1.61.04-2.14,1.86-2.18,4.28-.05,8.44.08,12.36,2.17.95.51,1.35.93,1.47,2.01,1.53,13.99,3.13,27.96,4.67,41.96.17,1.53,1.19,3.6.13,4.49ZM238.78,329.25c0,2.56-.01,2.56-2.31,1.64-16.11-6.45-32.23-12.92-48.34-19.35h0c-16.42-6.58-32.84-13.16-49.28-19.72-1.31-.53-1.67-1.21-1.66-2.56.05-12.66.04-25.31.01-37.98,0-1.1.14-1.82,1.34-2.28,16.45-6.57,32.89-13.14,49.33-19.72,16.63-6.65,33.24-13.31,49.86-19.96.26-.09.53-.18,1.05-.36v120.31Z"/>
    <path class="cls-1" d="M269.27,298.3c1.54-.08,3.02.57,4.36,1.64,7.43,5.96,14.89,11.9,22.3,17.89,3.44,2.79,3.99,7.03,1.44,10.14-2.56,3.12-6.76,3.42-10.22.66-7.45-5.95-14.88-11.91-22.3-17.9-2.55-2.06-3.37-5.06-2.32-7.96.98-2.71,3.56-4.47,6.73-4.48Z"/>
    <path class="cls-1" d="M269.26,251.61c-3.11,0-5.62-1.68-6.65-4.29-1.06-2.69-.48-5.88,1.78-7.73,7.78-6.34,15.59-12.64,23.5-18.81,2.98-2.32,7.17-1.49,9.44,1.49,2.3,3.02,1.86,7.12-1.25,9.68-5.41,4.45-10.91,8.77-16.38,13.15-2.03,1.63-4.05,3.25-6.08,4.88-1.34,1.07-2.83,1.72-4.36,1.63Z"/>
    <path class="cls-1" d="M280.44,281.9c-3.75,0-7.51.02-11.26,0-4.21-.03-7.23-2.97-7.21-6.99.02-4,3.04-6.88,7.29-6.89,7.44-.02,14.87-.02,22.31,0,4.21,0,7.31,2.94,7.34,6.88.03,4.04-3.08,6.99-7.43,7.01-3.68.01-7.36,0-11.05,0Z"/>
  </g>
  <path class="cls-3" d="M403.46,270.08c0,18.84-4.66,36.57-12.9,52.13-5.92-3.83-12.97-6.05-20.52-6.05-20.96,0-37.97,17.01-37.97,37.97,0,6.58,1.69,12.79,4.63,18.19-13.73,6.05-28.91,9.4-44.88,9.4-39.44,0-74.1-20.45-93.95-51.32-3.83-5.93-7.1-12.24-9.75-18.87h0c-5.13-12.83-7.94-26.81-7.94-41.45s2.73-28.17,7.68-40.81c2.6-6.61,5.82-12.92,9.58-18.84,19.77-31.25,54.65-51.99,94.37-51.99,10.31,0,20.3,1.4,29.78,4.02-3.26,5.59-5.11,12.1-5.11,19.02,0,9.83,3.75,18.8,9.88,25.53,0,0,29.74-27.1,55.43.79.55-.55,1.05-1.1,1.53-1.69,12.7,18.11,20.13,40.16,20.13,63.96Z"/>
  <g>
    <path class="cls-3" d="M390.55,322.21c-5.92-3.83-12.97-6.05-20.52-6.05-20.96,0-37.97,17.01-37.97,37.97,0,6.58,1.69,12.79,4.63,18.19,1.45,2.66,3.22,5.13,5.24,7.35,0,0,29.74-27.1,55.43.79,6.58-6.83,10.63-16.11,10.63-26.33,0-13.41-6.96-25.2-17.45-31.92ZM370.03,366.79c-5.17,0-9.76-2.49-12.62-6.36-1.93-2.61-3.08-5.83-3.08-9.33,0-8.67,7.02-15.69,15.69-15.69,3.7,0,7.09,1.27,9.76,3.41,3.62,2.87,5.93,7.31,5.93,12.28,0,8.67-7.02,15.69-15.69,15.69Z"/>
    <path class="cls-3" d="M397.37,380.46c-6.89,7.18-16.59,11.64-27.34,11.64s-21.15-4.79-28.09-12.44c0,0,29.74-27.1,55.43.79Z"/>
    <path class="cls-3" d="M398.38,381.59c-.34-.39-.68-.77-1.01-1.13"/>
  </g>
  <g>
    <path class="cls-3" d="M354.45,143.51c-14.03,0-26.3,7.62-32.86,18.95-3.26,5.59-5.11,12.1-5.11,19.02,0,9.83,3.75,18.8,9.88,25.53,0,0,29.74-27.1,55.43.79.55-.55,1.05-1.1,1.53-1.69,5.67-6.63,9.1-15.24,9.1-24.64,0-20.96-17.01-37.97-37.97-37.97ZM367.14,187.69c-2.86,3.92-7.46,6.45-12.68,6.45-8.67,0-15.69-7.02-15.69-15.69,0-3.13.91-6.05,2.49-8.49,2.79-4.34,7.66-7.2,13.2-7.2,8.67,0,15.69,7.02,15.69,15.69,0,3.45-1.12,6.66-3.01,9.24Z"/>
    <path class="cls-3" d="M381.79,207.81c-6.89,7.18-16.59,11.64-27.34,11.64s-21.15-4.79-28.09-12.44c0,0,29.74-27.1,55.43.79Z"/>
    <path class="cls-3" d="M382.8,208.94c-.34-.39-.68-.77-1.01-1.13"/>
  </g>
</svg>