<?xml version="1.0" encoding="UTF-8"?>
<svg id="Layer_1" data-name="Layer 1" xmlns="http://www.w3.org/2000/svg" viewBox="0 0 1080 1080">
  <defs>
    <style>
      .cls-1 {
        fill: #1f2f60;
      }

      .cls-2 {
        fill: none;
        stroke: #1f2f60;
        stroke-miterlimit: 10;
        stroke-width: 10px;
      }

      .cls-3 {
        fill: #1f3060;
        opacity: .18;
      }
    </style>
  </defs>
  <circle class="cls-3" cx="314.5" cy="185.85" r="363.31"/>
  <circle class="cls-3" cx="140.86" cy="334.89" r="363.31"/>
  <g>
    <g>
      <path class="cls-1" d="M362.31,254.82l15.84-30.57c9.11-1.83,23.27,3.09,29.52-5.66,2.59-3.61,3.3-7.22,1.77-11.39-4.69-12.76-21.07-6.25-31.29-8.38l-15.82-31.34c-4.63-6.2-15.09-4.07-16.22,3.83l3.6,27.87h-11.6c-.67,0-5.86-9.67-7.46-11.26-3.5-3.48-9.01-4.24-12.77-.73-5.67,5.3.17,16.04.43,22.83.28,7.22-7.66,24.8,2.74,27.18,9.59,2.19,12.74-7.46,16.69-14.07h11.97l-3.57,27.9c1.59,8.22,11.12,10.85,16.17,3.79ZM343.36,214.14c-5.24-.1-7.36-2.75-12,2.24l-5.61,7.87c2.68-9.06,2.47-16.77.02-25.82,3.47,2.33,4.61,9.4,8.76,10.32,2.97.67,10.69.37,14.05.15,1.81-.11,7.67-.53,8.85-.88,1.98-.58,2.84-3.53,2.79-5.43-.19-7.79-3.66-17.08-3.4-25.12,3.48,4.6,12.11,27.87,15.67,30,3.45,2.05,19.26-.1,24.71.74,4.6.72,4.51,5.21.77,5.92-5.4,1.03-22.49-1.62-25.78,1.17l-15,29.54c-1.45.15-.46-1.45-.37-2.24.84-7.89,2.41-15.73,3.44-23.59-.38-6.85-11.92-4.76-16.9-4.87Z"/>
      <path class="cls-1" d="M246.81,338.43l-88.39.02c-7.23-2.62-6.07-9.19,1.73-10.33,25.3-3.67,58.28,2.34,84.38-.18,7.82-.59,10.68,9.52,2.28,10.49Z"/>
      <path class="cls-1" d="M306.31,176.37l.33-.73v-14.96l-.34.33v-26.58c0-1.58-3.5-9.46-4.62-11.1-5.96-8.76-15.75-12.41-26.07-12.48,1.13-10.99-6.7-20.94-17.59-22.46-45.88,5.07-91.02,16.74-136.79,23.41-11.41,2.51-20.02,11.71-21.56,23.35v208.16c.92,12.7,9.44,21.85,21.54,24.86,50.34-.43,103.9,3.74,154.06.97,2.95-.16,5.91-.59,8.77-1.31,11.04-2.74,20.57-9.72,22.26-22.31.54-4-.39-8.97,0-13.1.11.03.22.05.34.09v-13.39c-.18-.43-.33-.86-.38-1.26l.02-54.86.03-86.63ZM255.03,98.06c6.98.58,11.09,5.88,10.85,12.79h-79.35l68.5-12.79ZM296.6,338.81c-.1,10.29-6.16,18.87-16.84,19.84H126.25c-10.26-.88-15.98-7.57-16.84-17.59v-202.16c.78-9.15,5.6-15.64,14.81-17.37l156.26-.2c7.12.96,12.81,5.85,15.16,12.53,1.41,44.49,1.1,89.13.9,133.76-.1,23.74-.18,47.48.06,71.19Z"/>
      <path class="cls-1" d="M267.02,311.48h-1.07l-127.74.02c-7.23-2.04-5.72-10.06,1.73-10.32,40.07,2.17,84.52-3.57,124.09-.22,1.67.14,3.14.51,4.36,1.04,5.17,2.23,5.88,7.27-1.37,9.48Z"/>
      <path class="cls-1" d="M197.61,140.27c-54.06,4.16-82.87,66.72-50.31,110.5,29.53,39.7,90.58,36.31,115.44-6.45,28.01-48.2-9.87-108.31-65.13-104.05ZM178.67,155.76l-6.93,15.53c-3.33,10.69-5.8,21.86-5.42,33.13h-22.45c2-20.97,15.21-40.59,34.8-48.66ZM179.04,263.56c-14.36-6.33-25.94-18.56-31.45-33.3-1.2-3.22-3.69-11.32-3.58-14.42.03-.7.51-1.69.98-1.69,3.99,0,17.6-.8,20.21,0,.65.2,1,1.19,1.12,1.87.62,3.4.27,8.69.85,12.63,1.24,8.37,3.84,17.95,7.26,25.68.61,1.39,5.04,8.76,4.61,9.23ZM197.76,267.3c-16.86-10.94-20.4-34.46-21.71-53.15h21.71v53.15ZM197.76,204.42h-21.71c.55-10.96,2.34-22.69,6.38-32.92,2.82-7.16,7.83-16.7,15.33-19.48v52.4ZM208.24,152.02c4.77,1.54,8.59,6.84,11.08,11.01,7.3,12.21,9.29,27.44,10.63,41.39h-21.71v-52.4ZM207.5,267.29l.74-53.14,21.7.75c-1.08,11.62-2.77,23.37-7.35,34.19-2.96,7-7.8,15.19-15.09,18.2ZM226.59,263.56l5.96-11.99c4.31-11.71,7.03-24.12,7.13-36.67h21.71c-1.02,21.24-15.66,40.22-34.8,48.66ZM239.68,204.42c-.13-13.21-2.79-26.73-7.89-38.9l-4.46-9.76c19.64,8.54,32.29,27.53,34.8,48.66h-22.45Z"/>
      <path class="cls-1" d="M268.39,302c-1.22-.53-2.69-.9-4.36-1.04-39.57-3.35-84.02,2.39-124.09.22-7.45.26-8.96,8.28-1.73,10.32l127.74-.02h1.07c7.25-2.21,6.54-7.25,1.37-9.48ZM197.61,140.27c-54.06,4.16-82.87,66.72-50.31,110.5,29.53,39.7,90.58,36.31,115.44-6.45,28.01-48.2-9.87-108.31-65.13-104.05ZM178.67,155.76l-6.93,15.53c-3.33,10.69-5.8,21.86-5.42,33.13h-22.45c2-20.97,15.21-40.59,34.8-48.66ZM179.04,263.56c-14.36-6.33-25.94-18.56-31.45-33.3-1.2-3.22-3.69-11.32-3.58-14.42.03-.7.51-1.69.98-1.69,3.99,0,17.6-.8,20.21,0,.65.2,1,1.19,1.12,1.87.62,3.4.27,8.69.85,12.63,1.24,8.37,3.84,17.95,7.26,25.68.61,1.39,5.04,8.76,4.61,9.23ZM197.76,267.3c-16.86-10.94-20.4-34.46-21.71-53.15h21.71v53.15ZM197.76,204.42h-21.71c.55-10.96,2.34-22.69,6.38-32.92,2.82-7.16,7.83-16.7,15.33-19.48v52.4ZM208.24,152.02c4.77,1.54,8.59,6.84,11.08,11.01,7.3,12.21,9.29,27.44,10.63,41.39h-21.71v-52.4ZM207.5,267.29l.74-53.14,21.7.75c-1.08,11.62-2.77,23.37-7.35,34.19-2.96,7-7.8,15.19-15.09,18.2ZM226.59,263.56l5.96-11.99c4.31-11.71,7.03-24.12,7.13-36.67h21.71c-1.02,21.24-15.66,40.22-34.8,48.66ZM239.68,204.42c-.13-13.21-2.79-26.73-7.89-38.9l-4.46-9.76c19.64,8.54,32.29,27.53,34.8,48.66h-22.45ZM244.53,327.94c-26.1,2.52-59.08-3.49-84.38.18-7.8,1.14-8.96,7.71-1.73,10.33l88.39-.02c8.4-.97,5.54-11.08-2.28-10.49Z"/>
      <path class="cls-1" d="M409.44,207.2c-4.69-12.76-21.07-6.25-31.29-8.38l-15.82-31.34c-4.63-6.2-15.09-4.07-16.22,3.83l3.6,27.87h-11.6c-.67,0-5.86-9.67-7.46-11.26-3.5-3.48-9.01-4.24-12.77-.73-5.67,5.3.17,16.04.43,22.83.28,7.22-7.66,24.8,2.74,27.18,9.59,2.19,12.74-7.46,16.69-14.07h11.97l-3.57,27.9c1.59,8.22,11.12,10.85,16.17,3.79l15.84-30.57c9.11-1.83,23.27,3.09,29.52-5.66,2.59-3.61,3.3-7.22,1.77-11.39ZM397.97,214.13c-5.4,1.03-22.49-1.62-25.78,1.17l-15,29.54c-1.45.15-.46-1.45-.37-2.24.84-7.89,2.41-15.73,3.44-23.59-.38-6.85-11.92-4.76-16.9-4.87-5.24-.1-7.36-2.75-12,2.24l-5.61,7.87c2.68-9.06,2.47-16.77.02-25.82,3.47,2.33,4.61,9.4,8.76,10.32,2.97.67,10.69.37,14.05.15,1.81-.11,7.67-.53,8.85-.88,1.98-.58,2.84-3.53,2.79-5.43-.19-7.79-3.66-17.08-3.4-25.12,3.48,4.6,12.11,27.87,15.67,30,3.45,2.05,19.26-.1,24.71.74,4.6.72,4.51,5.21.77,5.92Z"/>
      <path class="cls-1" d="M197.61,140.27c-54.06,4.16-82.87,66.72-50.31,110.5,29.53,39.7,90.58,36.31,115.44-6.45,28.01-48.2-9.87-108.31-65.13-104.05ZM178.67,155.76l-6.93,15.53c-3.33,10.69-5.8,21.86-5.42,33.13h-22.45c2-20.97,15.21-40.59,34.8-48.66ZM179.04,263.56c-14.36-6.33-25.94-18.56-31.45-33.3-1.2-3.22-3.69-11.32-3.58-14.42.03-.7.51-1.69.98-1.69,3.99,0,17.6-.8,20.21,0,.65.2,1,1.19,1.12,1.87.62,3.4.27,8.69.85,12.63,1.24,8.37,3.84,17.95,7.26,25.68.61,1.39,5.04,8.76,4.61,9.23ZM197.76,267.3c-16.86-10.94-20.4-34.46-21.71-53.15h21.71v53.15ZM197.76,204.42h-21.71c.55-10.96,2.34-22.69,6.38-32.92,2.82-7.16,7.83-16.7,15.33-19.48v52.4ZM208.24,152.02c4.77,1.54,8.59,6.84,11.08,11.01,7.3,12.21,9.29,27.44,10.63,41.39h-21.71v-52.4ZM207.5,267.29l.74-53.14,21.7.75c-1.08,11.62-2.77,23.37-7.35,34.19-2.96,7-7.8,15.19-15.09,18.2ZM226.59,263.56l5.96-11.99c4.31-11.71,7.03-24.12,7.13-36.67h21.71c-1.02,21.24-15.66,40.22-34.8,48.66ZM239.68,204.42c-.13-13.21-2.79-26.73-7.89-38.9l-4.46-9.76c19.64,8.54,32.29,27.53,34.8,48.66h-22.45Z"/>
      <path class="cls-1" d="M267.02,311.48h-1.07l-127.74.02c-7.23-2.04-5.72-10.06,1.73-10.32,40.07,2.17,84.52-3.57,124.09-.22,1.67.14,3.14.51,4.36,1.04,5.17,2.23,5.88,7.27-1.37,9.48Z"/>
      <path class="cls-1" d="M246.81,338.43l-88.39.02c-7.23-2.62-6.07-9.19,1.73-10.33,25.3-3.67,58.28,2.34,84.38-.18,7.82-.59,10.68,9.52,2.28,10.49Z"/>
      <path class="cls-1" d="M409.44,207.2c-4.69-12.76-21.07-6.25-31.29-8.38l-15.82-31.34c-4.63-6.2-15.09-4.07-16.22,3.83l3.6,27.87h-11.6c-.67,0-5.86-9.67-7.46-11.26-3.5-3.48-9.01-4.24-12.77-.73-5.67,5.3.17,16.04.43,22.83.28,7.22-7.66,24.8,2.74,27.18,9.59,2.19,12.74-7.46,16.69-14.07h11.97l-3.57,27.9c1.59,8.22,11.12,10.85,16.17,3.79l15.84-30.57c9.11-1.83,23.27,3.09,29.52-5.66,2.59-3.61,3.3-7.22,1.77-11.39ZM397.97,214.13c-5.4,1.03-22.49-1.62-25.78,1.17l-15,29.54c-1.45.15-.46-1.45-.37-2.24.84-7.89,2.41-15.73,3.44-23.59-.38-6.85-11.92-4.76-16.9-4.87-5.24-.1-7.36-2.75-12,2.24l-5.61,7.87c2.68-9.06,2.47-16.77.02-25.82,3.47,2.33,4.61,9.4,8.76,10.32,2.97.67,10.69.37,14.05.15,1.81-.11,7.67-.53,8.85-.88,1.98-.58,2.84-3.53,2.79-5.43-.19-7.79-3.66-17.08-3.4-25.12,3.48,4.6,12.11,27.87,15.67,30,3.45,2.05,19.26-.1,24.71.74,4.6.72,4.51,5.21.77,5.92Z"/>
    </g>
    <path class="cls-2" d="M398,328.11c.03,35.81-28.38,64.87-63.45,64.9-17.32.01-33.02-7.05-44.47-18.52-2.86-2.86-5.46-5.99-7.75-9.37h3.46c10.68-1,16.73-9.77,16.82-20.28-.26-24.21-.2-48.46-.12-72.7,3.09-1.85,6.35-3.44,9.74-4.73,6.92-2.65,14.4-4.1,22.22-4.1,35.07-.03,63.52,28.98,63.55,64.8Z"/>
    <path class="cls-1" d="M360.5,360c-7.44,0-13.5-6.06-13.5-13.5s6.06-13.5,13.5-13.5,13.5,6.06,13.5,13.5-6.06,13.5-13.5,13.5ZM360.5,340c-3.58,0-6.5,2.92-6.5,6.5s2.92,6.5,6.5,6.5,6.5-2.92,6.5-6.5-2.92-6.5-6.5-6.5Z"/>
    <path class="cls-1" d="M320.5,319c-7.44,0-13.5-6.06-13.5-13.5s6.06-13.5,13.5-13.5,13.5,6.06,13.5,13.5-6.06,13.5-13.5,13.5ZM320.5,299c-3.58,0-6.5,2.92-6.5,6.5s2.92,6.5,6.5,6.5,6.5-2.92,6.5-6.5-2.92-6.5-6.5-6.5Z"/>
    <polygon class="cls-1" points="307 361.84 364.62 288 374 291.16 315.04 365 307 361.84"/>
  </g>
</svg>