<?xml version="1.0" encoding="UTF-8"?>
<svg id="Layer_1" xmlns="http://www.w3.org/2000/svg" viewBox="0 0 1080 1080">
  <defs>
    <style>
      .cls-1, .cls-2 {
        fill: #042b62;
      }

      .cls-3 {
        fill: #052b62;
      }

      .cls-2 {
        opacity: .18;
      }

      .cls-4 {
        fill: #052c62;
      }

      .cls-5 {
        fill: #fefefe;
      }
    </style>
  </defs>
  <circle class="cls-2" cx="132.75" cy="219.25" r="260.75"/>
  <circle class="cls-2" cx="222.87" cy="114.49" r="260.75"/>
  <g>
    <path class="cls-1" d="M288.31,222.76v-123.95c.04-1.82.03-3.66-.62-5.39-2.23-6.01-6.45-9.56-12.9-10.26H95.1c-.1.09-.19.21-.31.24-8.79,2.3-13.02,7.79-13.02,16.92v91.63c0,.67-.08,1.37.05,2.02.31,1.56,1.27,2.51,2.92,2.54,1.66.03,2.65-.89,3.01-2.44.16-.71.08-1.47.08-2.21v-91.83c0-6.91,3.85-10.8,10.7-10.8h173.01c6.65,0,10.56,3.86,10.57,10.5,0,40.65,0,81.31,0,121.97,0,6.52-3.91,10.39-10.44,10.39-15.68,0-31.36,0-47.04,0-2.51,0-2.76-.37-1.66-2.76.92-1.96,2.46-3.52,3.66-5.3,3.06-4.53,3.32-8.62-.11-12.84-3.22-3.97-4.82-8.14-4.18-13.18.03-.19,0-.4-.01-.6-.16-4.35-2.11-7.79-6.28-8.93-5.62-1.53-9.77-4.45-12.92-9.39-2.33-3.65-6.33-4.84-10.35-3.25-5.3,2.09-10.28,2.08-15.57,0-3.94-1.54-7.9-.48-10.23,3.09-3.26,5-7.47,8.05-13.24,9.62-4.17,1.14-6.01,4.72-6.14,9.03-.05,1.62-.06,3.24,0,4.86.06,1.98-.52,3.69-1.71,5.26-1.17,1.56-2.35,3.13-3.36,4.79-2.02,3.34-2.04,6.79-.04,10.15.99,1.67,2.22,3.2,3.34,4.8.57.83,1.11,1.66,1.45,2.63.55,1.54.27,2.08-1.52,2.07-16.02-.06-32.03-.02-48.05-.04-5.8-.01-9.85-4.12-9.88-9.96-.02-4.59,0-9.17-.01-13.76,0-2.32-1.19-3.76-3.03-3.76-1.84,0-3.01,1.44-3.01,3.77-.02,4.25.17,8.51-.04,12.74-.49,9.81,7.23,17.31,16.98,17.12,15.67-.31,31.35-.08,47.04-.09,1.01,0,1.9-.19,2.1,1.35.51,3.88,2.99,6.19,6.51,7.5,1.64.61,3.32,1.09,4.97,1.65,3.66,1.24,6.83,5.66,6.83,9.48,0,8.36.11,16.72-.05,25.08-.06,3.36,1.05,5.7,4.1,7.1h2.83c3.78-1.5,7.57-3,11.35-4.51.39-.16.73-.18,1.14-.02,3.78,1.51,7.66,2.75,11.33,4.53h2.83c3.28-.85,4.54-2.45,4.62-5.86.02-.67,0-1.34,0-2.02,0-8.08,0-16.16,0-24.25,0-1.22.07-2.39.78-3.48,1.92-2.96,4.14-5.45,7.83-6.18,1.24-.25,2.44-.74,3.62-1.25,2.72-1.17,4.72-3.03,5.71-5.9.93-2.67.96-2.66,3.85-2.66,15.39,0,30.79-.17,46.17.07,7.7.12,16.73-6.43,16.03-16.02ZM197.72,279.15v4.78c-2.5-.96-4.93-1.65-7.13-2.77-3.77-1.91-7.34-1.98-11.12-.02-2.23,1.15-4.7,1.85-7.24,2.83,0-7.86,0-15.46.01-23.06,0-.45-.28-1.15.71-1.04,3.05.34,5.82-.8,8.59-1.78,2.4-.86,4.69-.8,7.07.05,2.65.95,5.3,2.01,8.21,1.75,1.39-.12.89.91.89,1.48.03,5.93.02,11.86.02,17.79ZM220.39,222.21c-3.06,3.77-4.34,7.89-4.12,12.71.24,5.36-.11,5.83-5.21,7.19-4.66,1.24-8.32,3.64-10.75,7.85-.17.29-.38.56-.58.83-2.45,3.37-3.23,3.8-7.1,2.26-5.15-2.06-10.1-2.08-15.26-.02-3.95,1.58-4.89,1.25-7.18-2.4-2.83-4.53-6.61-7.38-11.82-8.7-4.66-1.18-4.79-1.73-4.73-8.21.47-3.86-1.07-7.64-3.82-11.14-3.7-4.71-3.72-5.27-.02-9.93,2.77-3.5,4.2-7.3,3.85-11.77-.08-.94.03-1.89,0-2.83-.08-2.17.87-3.6,2.96-4.24.06-.02.12-.07.18-.09,6.32-1.21,10.93-4.72,14.23-10.25,1.4-2.35,2.57-2.48,5.19-1.72.9.26,1.81.52,2.68.88,4.13,1.69,8.2,1.48,12.36-.03,5.71-2.07,5.93-2.01,9.35,3.11,2.44,3.65,5.62,5.98,9.85,7.17,5.9,1.65,6.02,1.83,5.82,7.97-.15,4.46.95,8.38,3.9,11.75.09.1.16.22.24.32,3.27,4.37,3.4,5.09-.02,9.3ZM185.04,188.86c-15.77-.03-28.63,12.81-28.67,28.62-.04,15.97,12.73,28.79,28.65,28.77,15.81-.02,28.61-12.84,28.61-28.66,0-15.78-12.87-28.71-28.6-28.74ZM184.89,240.19c-12.5-.05-22.53-10.18-22.47-22.69.06-12.51,10.25-22.67,22.64-22.57,12.46.1,22.63,10.38,22.51,22.75-.11,12.54-10.22,22.56-22.69,22.51ZM185.04,188.86c-15.77-.03-28.63,12.81-28.67,28.62-.04,15.97,12.73,28.79,28.65,28.77,15.81-.02,28.61-12.84,28.61-28.66,0-15.78-12.87-28.71-28.6-28.74ZM184.89,240.19c-12.5-.05-22.53-10.18-22.47-22.69.06-12.51,10.25-22.67,22.64-22.57,12.46.1,22.63,10.38,22.51,22.75-.11,12.54-10.22,22.56-22.69,22.51ZM185.04,188.86c-15.77-.03-28.63,12.81-28.67,28.62-.04,15.97,12.73,28.79,28.65,28.77,15.81-.02,28.61-12.84,28.61-28.66,0-15.78-12.87-28.71-28.6-28.74ZM184.89,240.19c-12.5-.05-22.53-10.18-22.47-22.69.06-12.51,10.25-22.67,22.64-22.57,12.46.1,22.63,10.38,22.51,22.75-.11,12.54-10.22,22.56-22.69,22.51ZM185.04,188.86c-15.77-.03-28.63,12.81-28.67,28.62-.04,15.97,12.73,28.79,28.65,28.77,15.81-.02,28.61-12.84,28.61-28.66,0-15.78-12.87-28.71-28.6-28.74ZM184.89,240.19c-12.5-.05-22.53-10.18-22.47-22.69.06-12.51,10.25-22.67,22.64-22.57,12.46.1,22.63,10.38,22.51,22.75-.11,12.54-10.22,22.56-22.69,22.51ZM185.04,188.86c-15.77-.03-28.63,12.81-28.67,28.62-.04,15.97,12.73,28.79,28.65,28.77,15.81-.02,28.61-12.84,28.61-28.66,0-15.78-12.87-28.71-28.6-28.74ZM184.89,240.19c-12.5-.05-22.53-10.18-22.47-22.69.06-12.51,10.25-22.67,22.64-22.57,12.46.1,22.63,10.38,22.51,22.75-.11,12.54-10.22,22.56-22.69,22.51ZM185.04,188.86c-15.77-.03-28.63,12.81-28.67,28.62-.04,15.97,12.73,28.79,28.65,28.77,15.81-.02,28.61-12.84,28.61-28.66,0-15.78-12.87-28.71-28.6-28.74ZM184.89,240.19c-12.5-.05-22.53-10.18-22.47-22.69.06-12.51,10.25-22.67,22.64-22.57,12.46.1,22.63,10.38,22.51,22.75-.11,12.54-10.22,22.56-22.69,22.51ZM185.04,188.86c-15.77-.03-28.63,12.81-28.67,28.62-.04,15.97,12.73,28.79,28.65,28.77,15.81-.02,28.61-12.84,28.61-28.66,0-15.78-12.87-28.71-28.6-28.74ZM184.89,240.19c-12.5-.05-22.53-10.18-22.47-22.69.06-12.51,10.25-22.67,22.64-22.57,12.46.1,22.63,10.38,22.51,22.75-.11,12.54-10.22,22.56-22.69,22.51Z"/>
    <path class="cls-1" d="M184.04,145.06c-24.8,0-49.61,0-74.41,0-6.22,0-8.84-1.86-8.86-6.26,0-2.97-.04-5.93,0-8.9.06-3.52,2.83-5.53,7.81-5.54,15.26-.03,30.53-.02,45.79,0,3.15,0,5.03,1.15,5.04,2.96.02,1.88-1.95,3.09-5.24,3.09-14.02.02-28.05.05-42.07-.03-2.22-.01-3.02.37-2.81,1.98.21,1.6.17,3.24,0,4.85-.14,1.37.34,1.91,2.45,1.81,2.85-.14,5.72-.03,8.58-.03,45.22,0,90.44-.02,135.65.05,2.85,0,3.64-.54,3.33-2.44-.23-1.4-.21-2.84,0-4.24.25-1.64-.65-1.98-2.84-1.97-23.94.05-47.89.03-71.83.03-2.86,0-5.72.03-8.59,0-3.3-.04-5.17-1.24-5.08-3.18.09-1.84,1.86-2.87,5.13-2.88,27.95,0,55.9-.02,83.85,0,4.98,0,7.79,2,7.87,5.51.07,3.17.06,6.34,0,9.5-.06,3.71-2.93,5.68-8.25,5.68-25.18,0-50.37,0-75.55,0Z"/>
    <path class="cls-1" d="M184.15,158c-25.66,0-51.32,0-76.98,0-.95,0-1.94.08-2.85-.08-2.2-.37-3.53-1.41-3.47-3.02.06-1.6,1.41-2.61,3.65-2.92.83-.11,1.71-.05,2.57-.05,51.51,0,103.03,0,154.54,0,.86,0,1.74-.06,2.57.05,2.24.31,3.59,1.35,3.62,2.94.03,1.59-1.3,2.65-3.52,3-.91.14-1.9.07-2.85.07-25.76,0-51.51,0-77.27,0Z"/>
    <path class="cls-1" d="M158.67,110.57c17.26,0,34.53,0,51.79,0,1.43,0,2.91-.08,4.09.64,1.23.76,1.81,1.71,1.49,2.88-.32,1.15-1.22,2-2.85,2.28-1.09.19-2.25.25-3.39.25-34.24.01-68.49,0-102.73,0-.48,0-.96.01-1.43,0-3-.13-4.96-1.42-4.84-3.2.11-1.71,1.98-2.85,4.93-2.86,17.65-.02,35.29,0,52.94,0Z"/>
    <path class="cls-1" d="M246.51,182.27c5.65,0,11.29,0,16.94,0,2.53,0,3.87,1.11,3.82,3.1-.05,1.87-1.4,2.96-3.79,2.96-11.43.01-22.85.01-34.28,0-2.39,0-3.7-1.11-3.71-3.03-.01-1.93,1.29-3.02,3.68-3.02,5.78-.01,11.56,0,17.34,0Z"/>
    <path class="cls-1" d="M123.69,182.27c5.65,0,11.29,0,16.94,0,2.55,0,3.88,1.08,3.84,3.07-.03,1.89-1.37,2.99-3.75,2.99-11.43.01-22.85.01-34.28,0-2.4,0-3.72-1.09-3.74-3-.02-1.99,1.3-3.05,3.85-3.06,5.71,0,11.43,0,17.14,0Z"/>
    <path class="cls-4" d="M120.09,201.12c-4.24,0-8.48,0-12.72,0-.54,0-1.08.03-1.61-.02-1.95-.18-3.08-1.32-3.05-3.07.02-1.75,1.15-2.94,3.14-2.95,9.56-.05,19.11-.04,28.67,0,1.94,0,3.16,1.26,3.19,2.93.03,1.75-1.24,3.05-3.28,3.07-4.78.06-9.56.02-14.33.02h0Z"/>
    <path class="cls-4" d="M249.56,201.12c-4.58,0-9.15.03-13.73-.01-2.28-.02-3.52-1.13-3.54-2.99-.02-1.89,1.19-3.02,3.47-3.05,4.91-.05,9.82-.02,14.74-.02,4.51,0,9.02-.05,13.52.03,2.45.04,3.85,1.97,3.07,4.05-.58,1.56-1.87,1.99-3.4,1.99-4.71,0-9.42,0-14.13,0Z"/>
    <path class="cls-1" d="M117.78,213.88c-3.83,0-7.67.02-11.5,0-2.3-.01-3.53-1.05-3.57-2.93-.04-1.95,1.26-3.12,3.61-3.12,7.67-.02,15.33-.02,23,0,2.18,0,3.57,1.19,3.63,2.97.06,1.86-1.35,3.07-3.67,3.09-3.83.02-7.67,0-11.5,0Z"/>
    <path class="cls-1" d="M252.04,213.88c-3.76,0-7.53.02-11.29,0-2.35-.01-3.7-1.15-3.68-3.04.02-1.89,1.38-3.01,3.74-3.02,7.6-.01,15.19-.02,22.79,0,2.34,0,3.69,1.17,3.67,3.08-.02,1.92-1.3,2.97-3.73,2.98-3.83.02-7.66,0-11.49,0Z"/>
    <path class="cls-3" d="M247.98,110.57c4.96,0,9.92-.02,14.89,0,2.95.02,4.83,1.13,4.96,2.84.13,1.76-1.87,3.18-4.83,3.2-9.92.05-19.85.05-29.77,0-3.16-.01-4.92-1.23-4.88-3.11.04-1.89,1.75-2.92,5.04-2.94,4.87-.03,9.73,0,14.6,0Z"/>
    <path class="cls-5" d="M185.04,188.86c-15.77-.03-28.63,12.81-28.67,28.62-.04,15.97,12.73,28.79,28.65,28.77,15.81-.02,28.61-12.84,28.61-28.66,0-15.78-12.87-28.71-28.6-28.74ZM184.89,240.19c-12.5-.05-22.53-10.18-22.47-22.69.06-12.51,10.25-22.67,22.64-22.57,12.46.1,22.63,10.38,22.51,22.75-.11,12.54-10.22,22.56-22.69,22.51Z"/>
    <path class="cls-1" d="M185.04,188.86c-15.77-.03-28.63,12.81-28.67,28.62-.04,15.97,12.73,28.79,28.65,28.77,15.81-.02,28.61-12.84,28.61-28.66,0-15.78-12.87-28.71-28.6-28.74ZM184.89,240.19c-12.5-.05-22.53-10.18-22.47-22.69.06-12.51,10.25-22.67,22.64-22.57,12.46.1,22.63,10.38,22.51,22.75-.11,12.54-10.22,22.56-22.69,22.51Z"/>
  </g>
</svg>