<?xml version="1.0" encoding="UTF-8"?>
<svg id="Layer_1" xmlns="http://www.w3.org/2000/svg" viewBox="0 0 1080 1080">
  <defs>
    <style>
      .cls-1, .cls-2 {
        fill: #1f3060;
      }

      .cls-3 {
        fill: #203160;
      }

      .cls-4 {
        fill: #fff;
      }

      .cls-2 {
        opacity: .18;
      }
    </style>
  </defs>
  <g>
    <path class="cls-1" d="M165.73,160.26c.01,20.92.01,41.85,0,62.77,0,3.58-1.78,5.97-4.75,6.56-2.51.5-5.18-.99-6.3-3.43-.54-1.19-.44-2.43-.44-3.66-.01-10.41,0-20.83,0-31.25s-.01-20.64,0-30.96c0-4.39,2.22-6.98,5.84-6.91,3.45.07,5.65,2.7,5.65,6.87Z"/>
    <path class="cls-1" d="M205.96,192.42c0,7.65.01,15.3,0,22.95-.01,4.06-2.39,6.74-5.85,6.65-3.36-.08-5.61-2.69-5.62-6.61-.01-15.3-.01-30.6,0-45.89,0-4.09,2.34-6.7,5.86-6.62,3.41.07,5.6,2.6,5.61,6.58.02,7.65,0,15.3,0,22.95Z"/>
    <path class="cls-1" d="M257.84,174.66c-.07-7.43-4.33-11.73-11.75-11.81-5.54-.06-11.09-.05-16.63,0-7.48.07-11.81,4.49-11.84,12.06-.03,6.31,0,12.61,0,18.92,0,6.79-.06,13.57.02,20.36.05,3.75,2.39,6.25,5.64,6.33,3.41.09,5.77-2.39,5.89-6.33.09-2.96.13-5.93,0-8.89-.07-1.75.48-2.31,2.26-2.27,4.97.11,9.94.09,14.91.02,7.03-.09,11.4-4.44,11.49-11.49.08-5.64.06-11.27,0-16.91ZM244.41,191.5c-2.18-.12-4.38-.03-6.57-.03v-.22c-2.75,0-6.41,1.08-8-.28-1.85-1.58-.57-5.36-.57-8.17s-1.26-6.34.57-7.89c1.57-1.34,5.08-.42,7.73-.46,2.29-.03,4.58.08,6.86-.04,1.56-.08,1.92.53,1.89,1.98-.08,4.38-.08,8.77,0,13.15.03,1.47-.37,2.05-1.91,1.96Z"/>
    <path class="cls-1" d="M308.11,173.87c-.02-5.94-4.06-10.6-9.97-10.88-6.68-.32-13.39-.32-20.07-.02-6.07.27-10.08,4.91-10.11,11.03-.03,6.12-.01,12.24-.01,18.36s-.02,12.24,0,18.36c.03,6.48,4.31,11.1,10.81,11.3,6.21.19,12.44.2,18.65-.01,6.35-.22,10.68-4.84,10.7-11.13.04-12.34.05-24.68,0-37.02ZM294.3,210.51c-4.2-.13-8.4-.1-12.6,0-1.62.03-2.34-.21-2.32-2.12.1-10.6.1-21.19,0-31.79-.02-1.81.52-2.24,2.25-2.19,4.29.12,8.59.14,12.89,0,1.85-.06,2.2.59,2.17,2.28-.1,5.25-.04,10.5-.04,15.75s-.09,10.5.05,15.75c.05,1.93-.56,2.4-2.4,2.34Z"/>
    <path class="cls-1" d="M366.18,172.25c-12.54-14.19-25.11-28.35-37.56-42.62-2.27-2.61-4.77-3.7-8.21-3.69-32.81.08-65.62.05-98.44.05-17.79,0-35.58-.05-53.38.07-2.45.02-3-.67-2.92-3,.18-5.45.17-10.91.01-16.36-.19-6.63-3.14-11.89-8.49-15.81-2.43-1.78-5.3-2.53-8.07-3.5h-6.89c-.12.14-.22.35-.37.4-10.97,3.5-15.7,9.92-15.7,21.33v223.55c0,.57-.07,1.16.01,1.72.25,1.8-.33,2.53-2.3,2.42-3.05-.17-6.12-.11-9.18-.02-8.48.26-13.58,5.54-13.63,14.06-.03,5.64-.07,11.29.03,16.93.03,1.65-.48,2.12-2.09,2.05-2.87-.11-5.75-.12-8.61.01-2.74.13-4.81,2.14-5.26,4.83-.44,2.6,1.06,5.1,3.58,6.19,1.21.52,2.44.4,3.67.4,29.85.01,59.69,0,89.54,0,6.12,0,12.25.06,18.37-.03,3.33-.05,5.63-2.43,5.69-5.59.06-3.3-2.26-5.72-5.72-5.85-2.1-.07-4.22-.17-6.31.02-2.49.23-3.47-.4-3.35-3.18.25-5.54.15-11.09.05-16.64-.14-7.63-5.01-12.71-12.65-13.17-3.24-.19-6.51-.2-9.75-.05-1.98.09-2.58-.45-2.55-2.49.11-9.85.05-19.71.05-29.56,0-2.97.08-5.94-.03-8.9-.12-3.04-2.24-5.31-5.08-5.7-2.49-.35-5.28,1.33-6.05,3.85-.32,1.07-.32,2.26-.32,3.4-.02,12.24-.07,24.49.05,36.73.02,2.2-.6,2.77-2.72,2.67-3.72-.17-7.47-.2-11.19,0-2.3.13-2.79-.65-2.79-2.84.08-25.25.09-50.51,0-75.76,0-2.5.48-3.3,3.18-3.29,59.69.09,119.38.03,179.07.15,4.05,0,6.78-1.33,9.36-4.31,12.23-14.08,24.61-28.03,36.96-42,10.43-11.8,10.44-24.7,0-36.5ZM137.7,107.11c.12-4.69,3.81-8.23,8.23-8.24,4.44,0,8.06,3.52,8.27,8.22.13,2.86.02,5.73.02,8.6h0c0,2.77-.07,5.55.03,8.32.05,1.44-.3,2.04-1.88,2.01-4.3-.09-8.61-.07-12.91,0-1.26.02-1.88-.19-1.86-1.69.09-5.73-.07-11.48.08-17.21ZM176.51,348.33c2.01,0,2.67.7,2.63,2.68-.1,5.54-.11,11.08.01,16.62.04,1.81-.5,2.21-2.24,2.19-10.32-.08-20.64-.04-30.96-.04s-20.64-.05-30.96.04c-1.87.02-2.44-.47-2.4-2.36.13-5.44.11-10.89.01-16.34-.04-2.11.74-2.81,2.84-2.81,20.35.06,40.7.05,61.05,0ZM358.16,200.41c-12.12,13.78-24.31,27.51-36.41,41.32-1.2,1.37-2.42,1.8-4.18,1.8-59-.05-118.01-.05-177.02.02-2.36,0-2.98-.53-2.97-2.94.09-33.38.09-66.75,0-100.13,0-2.37.55-2.99,2.96-2.98,29.55.09,59.1.06,88.65.06s58.72.03,88.08-.05c2.13,0,3.49.66,4.86,2.24,11.9,13.6,23.88,27.13,35.84,40.67,5.88,6.66,6,13.37.17,20Z"/>
    <path class="cls-3" d="M159,277.38c-3.13-.1-5.52-2.63-5.47-5.79.05-3.22,2.75-5.79,5.94-5.66,3.06.13,5.59,2.8,5.54,5.83-.06,3.19-2.76,5.72-6,5.61Z"/>
    <path class="cls-4" d="M165.73,160.26c.01,20.92.01,41.85,0,62.77,0,3.58-1.78,5.97-4.75,6.56-2.51.5-5.18-.99-6.3-3.43-.54-1.19-.44-2.43-.44-3.66-.01-10.41,0-20.83,0-31.25s-.01-20.64,0-30.96c0-4.39,2.22-6.98,5.84-6.91,3.45.07,5.65,2.7,5.65,6.87Z"/>
    <path class="cls-4" d="M205.96,192.42c0,7.65.01,15.3,0,22.95-.01,4.06-2.39,6.74-5.85,6.65-3.36-.08-5.61-2.69-5.62-6.61-.01-15.3-.01-30.6,0-45.89,0-4.09,2.34-6.7,5.86-6.62,3.41.07,5.6,2.6,5.61,6.58.02,7.65,0,15.3,0,22.95Z"/>
    <path class="cls-4" d="M257.84,174.66c-.07-7.43-4.33-11.73-11.75-11.81-5.54-.06-11.09-.05-16.63,0-7.48.07-11.81,4.49-11.84,12.06-.03,6.31,0,12.61,0,18.92,0,6.79-.06,13.57.02,20.36.05,3.75,2.39,6.25,5.64,6.33,3.41.09,5.77-2.39,5.89-6.33.09-2.96.13-5.93,0-8.89-.07-1.75.48-2.31,2.26-2.27,4.97.11,9.94.09,14.91.02,7.03-.09,11.4-4.44,11.49-11.49.08-5.64.06-11.27,0-16.91ZM244.41,191.5c-2.18-.12-4.38-.03-6.57-.03v-.22c-2.75,0-6.41,1.08-8-.28-1.85-1.58-.57-5.36-.57-8.17s-1.26-6.34.57-7.89c1.57-1.34,5.08-.42,7.73-.46,2.29-.03,4.58.08,6.86-.04,1.56-.08,1.92.53,1.89,1.98-.08,4.38-.08,8.77,0,13.15.03,1.47-.37,2.05-1.91,1.96Z"/>
    <path class="cls-4" d="M308.11,173.87c-.02-5.94-4.06-10.6-9.97-10.88-6.68-.32-13.39-.32-20.07-.02-6.07.27-10.08,4.91-10.11,11.03-.03,6.12-.01,12.24-.01,18.36s-.02,12.24,0,18.36c.03,6.48,4.31,11.1,10.81,11.3,6.21.19,12.44.2,18.65-.01,6.35-.22,10.68-4.84,10.7-11.13.04-12.34.05-24.68,0-37.02ZM294.3,210.51c-4.2-.13-8.4-.1-12.6,0-1.62.03-2.34-.21-2.32-2.12.1-10.6.1-21.19,0-31.79-.02-1.81.52-2.24,2.25-2.19,4.29.12,8.59.14,12.89,0,1.85-.06,2.2.59,2.17,2.28-.1,5.25-.04,10.5-.04,15.75s-.09,10.5.05,15.75c.05,1.93-.56,2.4-2.4,2.34Z"/>
    <path class="cls-1" d="M308.11,173.87c-.02-5.94-4.06-10.6-9.97-10.88-6.68-.32-13.39-.32-20.07-.02-6.07.27-10.08,4.91-10.11,11.03-.03,6.12-.01,12.24-.01,18.36s-.02,12.24,0,18.36c.03,6.48,4.31,11.1,10.81,11.3,6.21.19,12.44.2,18.65-.01,6.35-.22,10.68-4.84,10.7-11.13.04-12.34.05-24.68,0-37.02ZM294.3,210.51c-4.2-.13-8.4-.1-12.6,0-1.62.03-2.34-.21-2.32-2.12.1-10.6.1-21.19,0-31.79-.02-1.81.52-2.24,2.25-2.19,4.29.12,8.59.14,12.89,0,1.85-.06,2.2.59,2.17,2.28-.1,5.25-.04,10.5-.04,15.75s-.09,10.5.05,15.75c.05,1.93-.56,2.4-2.4,2.34Z"/>
    <path class="cls-1" d="M257.84,174.66c-.07-7.43-4.33-11.73-11.75-11.81-5.54-.06-11.09-.05-16.63,0-7.48.07-11.81,4.49-11.84,12.06-.03,6.31,0,12.61,0,18.92,0,6.79-.06,13.57.02,20.36.05,3.75,2.39,6.25,5.64,6.33,3.41.09,5.77-2.39,5.89-6.33.09-2.96.13-5.93,0-8.89-.07-1.75.48-2.31,2.26-2.27,4.97.11,9.94.09,14.91.02,7.03-.09,11.4-4.44,11.49-11.49.08-5.64.06-11.27,0-16.91ZM244.41,191.5c-2.18-.12-4.38-.03-6.57-.03v-.22c-2.75,0-6.41,1.08-8-.28-1.85-1.58-.57-5.36-.57-8.17s-1.26-6.34.57-7.89c1.57-1.34,5.08-.42,7.73-.46,2.29-.03,4.58.08,6.86-.04,1.56-.08,1.92.53,1.89,1.98-.08,4.38-.08,8.77,0,13.15.03,1.47-.37,2.05-1.91,1.96Z"/>
    <path class="cls-1" d="M165.73,223.04c0,3.58-1.78,5.97-4.75,6.56-2.51.5-5.18-.99-6.3-3.43-.54-1.19-.44-2.43-.44-3.66-.01-10.41,0-20.83,0-31.25s-.01-20.64,0-30.96c0-4.39,2.22-6.98,5.84-6.91,3.45.07,5.65,2.7,5.65,6.87.01,20.92.01,41.85,0,62.77Z"/>
    <path class="cls-1" d="M205.96,192.42c0,7.65.01,15.3,0,22.95-.01,4.06-2.39,6.74-5.85,6.65-3.36-.08-5.61-2.69-5.62-6.61-.01-15.3-.01-30.6,0-45.89,0-4.09,2.34-6.7,5.86-6.62,3.41.07,5.6,2.6,5.61,6.58.02,7.65,0,15.3,0,22.95Z"/>
  </g>
  <circle class="cls-2" cx="306.1" cy="183.88" r="363.31"/>
  <circle class="cls-2" cx="132.45" cy="332.93" r="363.31"/>
</svg>