<?xml version="1.0" encoding="UTF-8"?>
<svg id="Layer_1" xmlns="http://www.w3.org/2000/svg" viewBox="0 0 1080 1080">
  <defs>
    <style>
      .cls-1, .cls-2 {
        fill: #1f3060;
      }

      .cls-2 {
        opacity: .18;
      }
    </style>
  </defs>
  <circle class="cls-2" cx="314.5" cy="188.67" r="363.31"/>
  <circle class="cls-2" cx="140.86" cy="337.71" r="363.31"/>
  <g>
    <path class="cls-1" d="M393.93,336.75c-6.58-11.94-13.55-23.68-20.37-35.5-.67-1.16-1.62-1.99-3.03-2.18-1.7-.22-3.11.24-4.12,1.68-1.23,1.75-.84,3.46.16,5.18,6.42,11.08,12.83,22.18,19.25,33.27,1.33,2.29,2.21,4.66,1.58,7.37-.91,3.92-3.88,6.76-7.72,7.37-3.78.6-7.46-1.25-9.67-5.06-11.9-20.58-23.79-41.17-35.65-61.78-2.9-5.05-1.6-10.52,3.02-13.21,4.66-2.72,10.02-1.11,12.99,3.94,2.01,3.41,3.92,6.89,5.96,10.28,1.4,2.33,3.85,2.99,5.89,1.76,2.02-1.21,2.67-3.51,1.4-5.78-2.25-4.02-4.51-8.05-6.99-11.93-3.21-5-8-7.62-13.89-7.88-13.52-.6-22.53,13.6-16.34,25.66,1.75,3.41,3.75,6.68,5.8,10.3-3.31,0-6.24-.07-9.18.03-1.33.05-1.41-.61-1.55-1.64-1.31-9.81-5.06-18.83-9.46-27.58-11.28-22.42-25.7-42.84-40.67-62.88-4.94-6.63-10.07-13.11-15.19-19.77,3.31-1.11,6.1-2.8,7.84-5.64,1.14-1.85,2.31-1.9,4.11-1.29,8.5,2.87,13.35,9.22,16.34,17.23,1.38,3.7,2.23,7.59,3.38,11.38,1.77,5.85,3.9,11.54,7.99,16.25,1.88,2.17,4.48,2.53,6.31.94,1.78-1.54,1.92-4.01.15-6.17-2.31-2.83-3.99-5.99-5.09-9.43-1.38-4.3-2.57-8.65-3.9-12.96-3.46-11.19-9.66-20.25-20.97-24.49-3.64-1.36-6.09-2.67-6.85-6.68-.26-1.38-.25-1.9.95-2.51,6.07-3.07,12.07-3.14,17.91.49,3.05,1.9,5.94,4.06,8.93,6.05,3.09,2.06,6.37,3.75,10.06,4.4,2.7.47,4.76-.92,5.2-3.31.41-2.29-.9-4.31-3.46-4.85-2.77-.59-5.18-1.88-7.48-3.42-2.6-1.75-5.12-3.63-7.76-5.33-9.55-6.15-19.28-6.22-28.93-.41-2.29,1.38-4.16,1.39-6.48.13.7-.96,1.32-1.84,1.96-2.7,2.6-3.49,4.87-7.18,6.62-11.16.99-2.24.21-4.38-1.79-5.44-2-1.07-4.19-.45-5.52,1.59-.4.61-.7,1.3-1.03,1.96-2.74,5.39-6.18,10.27-10.6,14.43-.65.61-1.18,1.42-2.27,1.41-3.09-.03-6.18,0-9.44,0,1.59-5.85,2.61-11.46,3.22-17.15.33-3.05-1.21-5.2-3.77-5.45-2.38-.23-4.14,1.48-4.52,4.51-.69,5.5-1.63,10.93-3.1,16.28-.41,1.48-1.05,1.9-2.47,1.84-2.77-.09-5.57-.27-8.31.04-2.86.32-3.77-.93-4.35-3.47-1.18-5.13-2.1-10.3-2.72-15.52-.27-2.27-1.73-3.51-3.86-3.65-2.18-.15-3.73,1.09-4.25,3.22-.25,1.03-.05,2.2.06,3.29.54,5.38,1.71,10.65,3.01,16.06-3.09,0-5.94-.04-8.8.02-1.01.02-1.71-.36-2.42-1.03-6.64-6.28-11.49-13.72-14.04-22.5-2.59-8.91.32-16.89,7.39-21.36,3.16-1.99,6.4-2.4,9.66-.44,5.91,3.55,11.78,3.64,17.82.29,3.9-2.16,8-2.18,11.91-.01,6.03,3.35,11.91,3.29,17.82-.25,3.14-1.88,6.31-1.67,9.4.29,3.89,2.46,6.68,5.76,7.92,10.26.07.27.16.53.24.79.89,2.7,2.81,3.98,5.16,3.42,2.27-.54,3.51-2.73,2.88-5.44-1.61-7.03-5.72-12.3-11.76-16.08-5.81-3.64-11.85-3.95-17.82-.53-3.48,2-6.57,1.99-10.13.09-6.37-3.37-13.01-3.36-19.36.03-3.58,1.91-6.7,1.89-10.14-.16-3.69-2.2-7.74-2.86-11.99-1.84-12.34,2.98-20.44,16.73-17.77,30.11,1.66,8.32,5.55,15.58,10.61,22.27,1.12,1.47,1.88,2.14-.77,2.92-6.78,2.01-10.92,8.52-10.26,15.58.62,6.69,4.56,10.82,10.72,13.24-2.29,2.92-4.54,5.72-6.74,8.57-3.27,4.24-6.55,8.47-9.72,12.78-1.49,2.03-1.05,4.53.81,5.9,1.73,1.29,4.09.99,5.71-.77.56-.61,1.03-1.31,1.53-1.96,5.74-7.35,11.5-14.68,17.2-22.06,1.09-1.42,2.23-2.1,4.14-2.09,17.65.09,35.29.07,52.94.02,1.64,0,2.73.47,3.73,1.77,3.77,4.9,7.71,9.67,11.47,14.58,16,20.89,31.43,42.17,43.82,65.47,4.55,8.54,8.61,17.3,10.44,26.94.47,2.47-.32,2.63-2.36,2.62-16.36-.06-32.7-.04-49.06-.03-7.77,0-13.62,3.43-16.76,10.52-3.09,6.96-1.86,13.58,3.36,19.21,1.21,1.31.71,1.84-.2,2.83-3.58,3.86-5.07,8.46-4.63,13.72.22,2.6,1.26,4.94,2.29,7.42-.62.03-1.07.06-1.51.06-25.5,0-51,0-76.5,0-1.01,0-2.04-.04-3.03-.22-16-2.84-28.44-11.19-36.8-25-7.96-13.18-9.68-27.26-3.88-41.91,3.06-7.72,6.74-15.14,10.81-22.38,6.47-11.5,13.8-22.47,21.29-33.33,1.71-2.49,1.32-4.87-.83-6.29-2.01-1.33-4.31-.79-5.98,1.51-1.42,1.94-2.75,3.94-4.09,5.92-10.22,15.03-19.91,30.37-27.2,47.1-2.54,5.83-4.12,11.94-5.73,18.05v12.2c.69.26.51.89.59,1.4,2.3,15.6,9.68,28.32,21.96,38.12,9.34,7.46,19.82,12.98,31.96,13.04,55.71.23,111.42.14,167.13.06,6.97,0,12.19-3.47,15.32-9.65,3.2-6.31,2.79-12.72-1.62-18.21-2.15-2.67-2.3-4.22.22-6.22.12-.1.29-.16.53-.29.53.86,1.07,1.71,1.57,2.58,4.52,7.82,8.91,15.73,13.59,23.45,5,8.24,15.5,10.81,23.73,6.09,8.15-4.68,11.42-15,6.86-23.29ZM216.85,180.57c-11.37,0-22.73,0-34.09,0-4.74,0-7.55-2.43-7.61-6.52-.05-4.19,2.86-6.85,7.62-6.85,22.73-.01,45.45-.01,68.18,0,4.55,0,7.61,2.68,7.62,6.59,0,4.24-2.84,6.79-7.63,6.79-11.37,0-22.73,0-34.09,0ZM260.19,308.61c.92-.08,1.84-.03,2.77-.03,22.07,0,44.14.19,66.21-.13,5.79-.08,9.47,1.41,11.95,6.86,2.38,5.22-.51,11.15-6.35,11.6-1.75.13-3.51.18-5.25.18-10.81.02-21.61,0-32.41,0v-.14c-12.19,0-24.37.06-36.56-.03-5.26-.04-8.89-3.8-8.96-8.88-.08-5.01,3.55-8.99,8.61-9.42ZM333.2,354c-12.1.05-24.2.01-36.3.01s-24.01.03-36.02-.01c-4.59-.02-8.38-3.14-9.13-7.34-.82-4.53,1.36-8.65,5.42-10.43,1.86-.82,3.83-.66,5.72-.66,23.55-.01,47.1.01,70.65.12,5.27.02,9.14,4.04,9.11,9.11-.03,5.11-4.11,9.18-9.45,9.2Z"/>
    <path class="cls-1" d="M221.7,257.22c-8.38,0-16.51,0-24.64,0-1.81,0-3.53-.15-4.65-1.85-.89-1.36-.94-2.84-.25-4.22.87-1.74,2.48-2.34,4.39-2.33,7.48.02,14.97,0,22.45,0,.91,0,1.81,0,2.76,0-1.14-4.86-5.7-8.38-10.79-8.45-4.71-.06-9.42-.03-14.13-.07-3.24-.02-5.08-1.54-5.1-4.16-.02-2.63,1.78-4.17,5.04-4.17,13.39-.02,26.79-.02,40.18,0,3.27,0,5.07,1.55,5.05,4.17-.02,2.61-1.87,4.14-5.1,4.16-3.11.02-6.22,0-9.69,0,1.47,2.6,2.71,4.94,3.3,7.54.22.99.92.98,1.69.98,1.85-.01,3.7-.08,5.54.02,2.6.15,4.25,1.83,4.27,4.17.02,2.37-1.63,4.41-4.22,4.08-5.09-.66-7.45,1.22-9.58,6.02-3.18,7.16-9.71,10.58-17.6,11.02-1.83.1-3.67.02-5.69.02.22,1.23,1.07,1.85,1.66,2.6,6.53,8.26,13.09,16.49,19.63,24.73.57.72,1.18,1.43,1.69,2.19,1.34,2.02,1.07,4.33-.6,5.74-1.72,1.44-4.35,1.26-5.93-.64-2.95-3.55-5.76-7.22-8.63-10.83-5.28-6.65-10.54-13.32-15.87-19.93-2.08-2.57-3.12-5.27-1.58-8.41,1.49-3.04,4.18-3.81,7.38-3.8,3.49.01,7.02.44,10.48-.45,4.1-1.06,7.17-3.88,8.56-8.13Z"/>
  </g>
</svg>