<?xml version="1.0" encoding="UTF-8"?>
<svg id="Layer_1" xmlns="http://www.w3.org/2000/svg" viewBox="0 0 1080 1080">
  <defs>
    <style>
      .cls-1, .cls-2 {
        fill: #1f3060;
      }

      .cls-3 {
        fill: #203160;
      }

      .cls-4 {
        fill: #203060;
      }

      .cls-2 {
        opacity: .18;
      }
    </style>
  </defs>
  <circle class="cls-2" cx="306.5" cy="185.67" r="363.31"/>
  <circle class="cls-2" cx="132.86" cy="334.71" r="363.31"/>
  <g>
    <path class="cls-1" d="M409.45,186.67c-2.1-2.4-4.49-2.84-7.42-1.91-4.39,1.41-8.81,2.69-13.21,4.07-.98.31-1.82.63-2.69-.31-6.07-6.48-12.18-12.93-18.38-19.51.75-.47,1.2-.78,1.68-1.04,13.52-7.55,27.06-15.07,40.56-22.63,4.73-2.66,5.19-5.95,1.44-9.77-3.1-3.13-6.38-6.1-9.3-9.39-2.61-2.94-5.31-3.55-9.07-2.37-16.65,5.2-33.39,10.13-50.05,15.28-2,.62-3.19.34-4.56-1.17-5.42-5.94-10.97-11.76-16.45-17.64-2.3-2.47-4.96-4.33-8.25-5.21-9.52-2.53-19.66,3.31-22.79,13.14-.37,1.14-.05,2.64-2.3,2.14-3.77-.84-6.32.64-6.97,3.56-.66,3,.82,5.28,4.59,6.47,4.03,1.28,7.35,3.29,10.34,6.49,5.32,5.71,11.24,10.87,16.88,16.28.89.86,1.98,1.46,1.37,3.26-1.84,5.46-3.38,11.03-5.1,16.79-1.17-.76-2.09-1.35-3.01-1.93-37-23.68-76.13-27.6-116.31-10.2-58.63,25.37-86.74,91.13-65.95,151.62,18.3,53.21,72.29,87.39,128.21,80.76,32.91-3.9,60.29-18.64,81.03-44.65,22.44-28.14,30.82-60.33,25.32-96-2.99-19.4-10.56-36.92-22.17-52.68-1.09-1.49-1.19-2.53-.28-4.09,2.27-3.88,4.45-7.84,6.54-11.83.83-1.59,1.39-1.84,2.78-.48,5.69,5.53,11.45,10.98,17.29,16.34,1.32,1.21,1.32,2.31.87,3.78-1.36,4.41-2.56,8.87-4.04,13.24-.89,2.65-.3,4.7,1.62,6.58,2.67,2.62,5.31,5.29,7.95,7.94,3.75,3.76,6.74,3.34,9.34-1.41,3.76-6.84,7.51-13.68,11.16-20.59,1.07-2.03,2.47-3.46,4.51-4.53,6.7-3.53,13.32-7.22,19.99-10.81,1.77-.95,3.29-2.12,4.41-3.8v-3.31c-2.83-3.81-6.44-6.91-9.55-10.46ZM129.56,269.05c6.27-43.59,29.77-73.84,70.35-90.63,14.12-5.84,28.97-7.88,44.21-7.24,1.08.05,2.14-.07,3.06.84,5.76,5.64,10.47,11.86,11.58,20.2.86,6.41-1.01,12.18-4.03,17.68-5.09,9.23-12.86,16.14-20.44,23.17-9.29,8.61-19.47,16.2-28.5,25.1-4.08,4.03-8,8.19-10.93,13.18-6.55,11.11-4.73,20.55,5.49,28.38,4.31,3.29,9.15,5.64,14.04,7.88,5.09,2.33,10.17,4.71,14.69,8.09.92.69,2.47,1.28,2.22,2.55-.2,1.05-1.8.96-2.8,1.28-4.67,1.47-9.5,1.72-12.92,1.69-14.87.22-26.82-4.25-37.9-11.54-9.61-6.32-17.86-14.29-26.53-21.76-5.08-4.38-10.25-8.63-16.63-11.11-1.83-.72-4.62.12-5.38-1.92-.62-1.67.11-3.89.4-5.85ZM350.66,283.17c-.36,46.4-29.62,87.77-73.16,103.58-3.5,1.27-3.59,1.26-3.73-2.43-.31-7.68,1.43-14.85,5.63-21.35,5.01-7.75,11.18-14.41,18.32-20.24,9.99-8.18,19.39-16.96,26.85-27.63,5.55-7.94,8.9-16.71,9.48-26.36.63-10.33,7.11-15.78,15.67-20.22.89,4.99.98,9.83.94,14.65ZM347.43,255.25c.52,2.02.34,3.3-1.77,4.15-1.62.65-3.08,1.68-4.61,2.55-9.7,5.6-16.3,13.25-16.92,25.06-.68,12.81-7.09,22.91-15.48,32.01-5.61,6.09-11.81,11.53-18.16,16.83-9.88,8.28-18.5,17.61-23.61,29.7-3.07,7.27-3.8,14.93-2.8,22.69.28,2.18-.37,2.52-2.22,2.9-60.92,12.33-119.84-27.36-131.39-88.64-.86-4.54-1.35-9.15-1.65-13.78-.18-2.71.95-2.77,2.83-2.06,3.33,1.28,6.21,3.33,8.89,5.62,6.18,5.31,12.25,10.74,18.47,16.02,10.29,8.75,21.32,16.35,34.46,20.17,13.82,4.02,27.72,4.64,41.49-.3,8.59-3.08,10.35-10.88,3.95-17.31-5.38-5.39-12.16-8.6-18.92-11.82-4.47-2.12-9.03-4.05-12.95-7.16-6.18-4.89-7.04-9.69-2.75-16.35,4.04-6.28,9.61-11.17,15.11-16.09,11.48-10.28,23.62-19.83,34.11-31.21,5.39-5.86,10.16-12.17,13.32-19.55,4.82-11.25,3.95-22.1-2.59-32.47-.56-.89-1.46-1.62-1.58-3.03,7.79,1.47,15.11,4.02,22.24,7.19,7.05,3.14,13.65,7.06,19.95,11.52,1.56,1.11,1.75,2.07,1.21,3.78-2.35,7.44-4.47,14.95-6.84,22.39-.98,3.09-.53,5.5,1.89,7.73,3.56,3.29,6.93,6.78,10.4,10.17,3.73,3.64,6.82,3.16,9.41-1.49,3.06-5.46,6.06-10.96,9.11-16.48,1.14.49,1.52,1.56,2.09,2.43,7.11,10.73,12.12,22.38,15.32,34.84ZM387.64,207.54c-2.19,1.13-3.62,2.63-4.73,4.78-3.12,6.06-6.41,12.01-9.7,18.13-2.28-1.4-2.75-2.77-1.97-4.97,1.48-4.14,2.53-8.42,3.88-12.61.94-2.92.5-5.25-1.85-7.44-8.73-8.08-17.33-16.31-26.02-24.44-3.36-3.15-6.56-2.59-8.83,1.46-7.28,13.07-14.56,26.14-21.83,39.2-.58,1.04-1.2,2.07-1.96,3.38-1.15-1.09-2.07-2.14-3.15-2.98-1.78-1.39-2.07-2.86-1.39-5.08,5.17-16.69,10.1-33.47,15.33-50.14,1.16-3.69.47-6.21-2.35-8.76-6.78-6.13-13.36-12.48-20.01-18.76-2.22-2.09-3.58-4.54-2.54-7.66,1.14-3.46,3.38-5.91,7.04-6.74,2.96-.66,5.31.42,7.35,2.62,6.16,6.61,12.5,13.06,18.55,19.77,2.7,2.99,5.31,3.82,9.29,2.57,15.7-4.96,31.49-9.6,47.24-14.36q6.23-1.88,10.58,3.76c-8.94,4.93-17.85,9.86-26.77,14.78-5.2,2.87-10.41,5.69-15.59,8.58-4.52,2.52-5,5.46-1.49,9.23,7.95,8.55,15.99,17.04,23.88,25.65,2.3,2.52,4.71,3.22,7.94,2.09,3.93-1.38,8.01-2.35,11.92-3.77,2.35-.86,3.99-.55,5.35,1.89-6.01,3.28-12.02,6.66-18.16,9.82Z"/>
    <path class="cls-4" d="M398.69,287.86c-.21,2.72-.31,5.8-.72,8.85-.42,3.14-2.8,4.95-5.71,4.64-2.74-.29-4.6-2.43-4.53-5.5.1-4.72.27-9.44.55-14.16.21-3.46,2.35-5.54,5.33-5.47,3.02.07,4.97,2.23,5.06,5.69.05,1.87,0,3.73,0,5.96Z"/>
    <path class="cls-3" d="M210.09,438.69c-4.71-.93-10.1-1.99-15.24-3.88-2.61-.96-3.71-3.81-2.73-6.27,1.07-2.68,3.12-4.09,5.98-3.37,4.68,1.18,9.37,2.27,14.11,3.2,2.97.58,4.71,3.07,4.38,5.7-.35,2.87-2.61,4.66-6.5,4.62Z"/>
    <path class="cls-1" d="M251.37,122.88c4.03.49,8.06.93,12.08,1.48,3.13.43,5.1,2.74,4.9,5.57-.21,2.93-2.68,5.12-5.94,4.86-4.69-.38-9.38-.92-14.04-1.6-3.27-.48-5.05-2.8-4.74-5.65.32-2.92,2.44-4.63,5.75-4.61.66,0,1.32.06,1.97.09,0-.05.01-.09.02-.14Z"/>
    <path class="cls-1" d="M209.71,136.05c-2.38-.29-4.32-1.44-4.86-4.26-.5-2.66.93-5.39,3.52-5.93,5.16-1.08,10.37-2.02,15.65-2.26,2.98-.14,4.8,1.43,5.35,4.3.54,2.81-1.05,5.26-4.07,5.82-5.08.94-10.21,1.55-15.6,2.34Z"/>
    <path class="cls-4" d="M192.29,137.31c-.22,2.08-1.27,3.77-3.41,4.67-4.35,1.82-8.68,3.7-13.07,5.42-2.82,1.11-5.45.02-6.67-2.51-1.22-2.54-.41-5.3,2.27-6.75,4.54-2.47,9.33-4.42,14.27-5.92,3.4-1.04,6.63,1.52,6.61,5.09Z"/>
    <path class="cls-1" d="M81.94,262.51c.5-5.14,1.37-10.22,2.57-15.23.73-3.02,3.48-4.48,6.33-3.75,2.58.66,4.21,3.27,3.72,6.13-.79,4.65-1.63,9.28-2.51,13.91-.6,3.18-2.86,4.9-5.77,4.56-2.74-.33-4.43-2.52-4.34-5.63Z"/>
    <path class="cls-4" d="M91.97,320.48c2.56.17,4.35,1.4,5.21,3.85,1.48,4.25,2.97,8.5,4.37,12.78.97,2.96-.31,5.86-2.9,6.83-2.74,1.03-5.61-.08-6.75-3.04-1.78-4.6-3.42-9.28-4.83-14.01-.94-3.15,1.66-6.3,4.91-6.42Z"/>
    <path class="cls-1" d="M327.36,412.64c.03,1.3-.57,2.79-1.94,3.62-4.39,2.68-8.8,5.36-13.35,7.74-2.57,1.35-5.47.11-6.69-2.4-1.32-2.71-.57-5.09,1.82-6.61,4.06-2.59,8.22-5.05,12.51-7.25,3.78-1.94,7.7.55,7.65,4.9Z"/>
    <path class="cls-3" d="M128.92,180.42c-.02,1.62-.67,2.86-1.58,4.01-2.61,3.27-5.18,6.57-7.81,9.82-2.38,2.95-5.16,3.45-7.74,1.47-2.46-1.89-2.73-4.93-.5-7.88,2.66-3.51,5.4-6.96,8.22-10.34,1.51-1.81,3.46-2.67,5.88-1.73,2.2.85,3.22,2.52,3.53,4.65Z"/>
    <path class="cls-4" d="M242.52,430.69c2.31,0,4.62-.06,6.92.01,2.87.09,4.9,1.94,5.07,4.6.19,2.95-1.17,4.99-4.06,5.51-5.33.96-10.75.74-16.1.33-2.66-.2-4.15-2.38-4.17-5.15-.02-2.68,2.15-4.89,5.09-5.08,2.41-.16,4.83-.03,7.25-.03,0-.06,0-.13,0-.19Z"/>
    <path class="cls-4" d="M80.8,290.74c0-.88-.02-1.76,0-2.64.1-3.23,2-5.4,4.86-5.58,2.84-.18,5.2,1.78,5.52,4.96.47,4.7.81,9.42,1.01,14.15.13,2.97-1.63,4.73-4.45,5.24-2.62.48-5.2-1.43-5.66-4.32-.62-3.9-.97-7.85-1.44-11.78.05,0,.1-.01.15-.02Z"/>
    <path class="cls-1" d="M146.92,400.65c.1,4.22-3.94,7.06-7.24,5.04-4.88-3-8.99-7.04-12.66-11.41-1.63-1.94-1.24-4.41.58-6.31,1.83-1.91,4.26-2.38,6.25-.78,4.18,3.37,8.08,7.08,12.02,10.73.79.73,1.17,1.86,1.04,2.73Z"/>
    <path class="cls-1" d="M162.17,409.82c.61.22,1.58.44,2.44.89,3.89,2.03,7.77,4.07,11.6,6.21,3.02,1.68,3.97,4.54,2.56,7.21-1.4,2.66-4.32,3.54-7.38,1.98-4.1-2.09-8.14-4.31-12.16-6.57-2.32-1.31-3.02-3.52-2.36-5.97.65-2.37,2.51-3.51,5.28-3.75Z"/>
    <path class="cls-1" d="M379.82,356.76c-.24.63-.47,1.62-.96,2.45-2.29,3.88-4.57,7.77-7.02,11.55-1.87,2.88-4.83,3.55-7.38,1.93-2.53-1.61-3.13-4.6-1.38-7.53,2.31-3.87,4.68-7.7,7.07-11.52,1.41-2.26,3.57-2.92,6.02-2.21,2.39.7,3.43,2.58,3.65,5.32Z"/>
    <path class="cls-1" d="M107.43,213.31c-.13.42-.31,1.28-.66,2.07-1.71,3.92-3.44,7.84-5.22,11.73-1.48,3.23-4.09,4.42-6.89,3.26-2.85-1.19-3.99-3.92-2.67-7.09,1.8-4.36,3.73-8.67,5.78-12.92,1.23-2.55,3.57-3.28,6.14-2.51,2.34.69,3.51,2.51,3.52,5.46Z"/>
    <path class="cls-4" d="M384.6,338.95c-3.45.01-5.94-3.08-4.99-6.5,1.25-4.53,2.65-9.03,4.15-13.48,1.02-3.02,3.67-4.3,6.5-3.41,2.69.85,4.17,3.57,3.33,6.58-1.21,4.32-2.56,8.6-3.94,12.87-.78,2.41-2.39,3.89-5.06,3.93Z"/>
    <path class="cls-4" d="M342.35,402.4c-2.63.09-4.15-.91-5.12-2.66-1.06-1.91-1-3.98.5-5.54,3.58-3.72,7.23-7.41,11.1-10.83,1.92-1.7,4.37-1.39,6.33.35,1.83,1.63,2.59,3.89,1.19,5.95-3.3,4.86-7.79,8.62-12.32,12.28-.54.43-1.45.4-1.67.46Z"/>
    <path class="cls-3" d="M396.54,255.99c.06,3.43-1.6,5.68-4.15,5.97-2.85.33-5.08-.77-5.8-3.64-1.2-4.78-2.26-9.6-3.14-14.44-.47-2.58,1.51-5.11,4.06-5.57,2.7-.49,4.91.53,5.79,3.15,1.65,4.88,2.41,9.99,3.23,14.54Z"/>
    <path class="cls-1" d="M108.1,355.97c1.79.11,3.07,1.07,4.03,2.51,2.43,3.66,4.89,7.3,7.25,11,1.83,2.86,1.29,5.87-1.21,7.54-2.38,1.59-5.35,1.07-7.21-1.56-2.66-3.76-5.16-7.64-7.64-11.53-1.15-1.81-1.14-3.77.03-5.61,1.09-1.72,2.71-2.5,4.76-2.35Z"/>
    <path class="cls-1" d="M141.7,168.67c-2.61.07-4.26-1-5.12-2.94-.9-2.03-.78-4.2.98-5.78,3.85-3.44,7.93-6.63,12.34-9.3,2.32-1.41,4.75-.88,6.46,1.33,1.59,2.05,1.83,4.65-.1,6.31-4.15,3.57-8.65,6.73-13.05,10-.48.36-1.25.32-1.51.38Z"/>
    <path class="cls-3" d="M292.24,429.41c-.02,1.61-1.21,3.34-3.57,4.05-4.5,1.36-9.01,2.71-13.58,3.8-3.06.73-5.54-.97-6.29-3.85-.72-2.77.8-5.43,3.91-6.21,4.45-1.12,8.89-2.25,13.29-3.6,3.22-.98,6.19,1.56,6.24,5.81Z"/>
  </g>
</svg>