<?xml version="1.0" encoding="UTF-8"?>
<svg id="Layer_1" xmlns="http://www.w3.org/2000/svg" viewBox="0 0 1080 1080">
  <defs>
    <style>
      .cls-1, .cls-2 {
        fill: #1f3060;
      }

      .cls-2 {
        opacity: .18;
      }
    </style>
  </defs>
  <circle class="cls-2" cx="316.1" cy="182.88" r="363.31"/>
  <circle class="cls-2" cx="142.45" cy="331.93" r="363.31"/>
  <g>
    <path class="cls-1" d="M340.48,347.1c-1.31-.46-2.66-.45-3.96-.3-2.22.28-2.67-.61-2.66-2.71.06-43.22.04-86.43.04-129.66,0-.86.03-1.72,0-2.58-.13-3.4-1.88-5.3-5.26-5.31-16.55-.04-33.1-.04-49.66,0-3.31,0-5.21,1.97-5.37,5.25-.04.7-.01,1.41-.01,2.12v129.89c0,.55-.05,1.1.01,1.64.11,1.03-.31,1.37-1.34,1.34-2.04-.06-4.09-.16-6.12.02-1.98.17-2.6-.33-2.59-2.48.08-33.75.06-67.49.06-101.24,0-4.85-1.61-6.49-6.46-6.49-15.77,0-31.54,0-47.3,0-4.88,0-6.49,1.61-6.49,6.46v100.77c0,.55-.05,1.1,0,1.65.12,1.04-.33,1.35-1.33,1.32-2.04-.06-4.09-.16-6.12.02-2.02.18-2.61-.36-2.59-2.5.09-23.65.06-47.29.06-70.94,0-5.1-1.62-6.71-6.78-6.71-15.53,0-31.07,0-46.6,0-5.51,0-6.93,1.43-6.93,6.96v70q0,3.15-3.07,3.15c-4.56,0-7.04,1.8-7.02,5.09.01,3.28,2.48,5.06,7.05,5.06h103.32c34.52,0,69.04,0,103.56,0,1.17,0,2.34.09,3.49-.31,2.11-.72,3.56-2.59,3.59-4.72.03-2.12-1.41-4.02-3.52-4.78ZM183.22,311.91c0,10.81-.04,21.61.04,32.42.02,1.84-.28,2.52-2.35,2.5-11.92-.12-23.85-.09-35.77-.02-1.66.01-2.06-.42-2.06-2.06.06-21.99.07-44-.01-66,0-1.86.58-2.12,2.24-2.12,11.92.07,23.85.08,35.77,0,1.73,0,2.21.38,2.2,2.17-.09,11.04-.04,22.08-.04,33.11ZM251.03,346.81c-11.84-.09-23.69-.08-35.53-.01-1.58,0-2.13-.34-2.13-2.04.06-32.1.06-64.19,0-96.29,0-1.63.56-1.9,2.02-1.89,12.08.05,24.16.06,36.24-.01,1.74-.01,2.02.58,2.01,2.13-.06,15.97-.03,31.94-.03,47.91s-.05,31.78.06,47.68c.01,2.16-.63,2.54-2.62,2.52ZM321.1,346.82c-11.77-.11-23.53-.09-35.31-.01-1.66.01-2.06-.43-2.05-2.07.04-42.04.05-84.09-.01-126.14,0-1.89.63-2.1,2.25-2.1,11.92.06,23.85.08,35.78-.01,1.77-.01,2.17.44,2.17,2.18-.07,21.07-.04,42.12-.04,63.19s-.05,41.5.06,62.24c.01,2.37-.68,2.74-2.84,2.72Z"/>
    <path class="cls-1" d="M325.23,146.75c-.92-.51-1.7-.29-2.45-.3-7.69-.02-15.37,0-23.06-.02-3.7-.01-6.02-2.05-5.96-5.16.05-3,2.34-4.97,5.91-4.98,12.79-.02,25.57-.03,38.36,0,4.5.01,6.67,2.7,5.6,7.04-3.18,12.89-6.42,25.76-9.68,38.63-.87,3.45-3.48,5.16-6.33,4.35-2.94-.83-4.21-3.44-3.35-6.92,1.89-7.64,3.79-15.28,5.7-22.98-.9.11-1.32.73-1.84,1.17-48.65,41.19-104.03,68.92-166.27,83.01-10.7,2.42-21.48,4.3-32.32,5.91-3.41.51-5.98-1.2-6.48-4.24-.45-2.77,1.49-5.21,4.9-5.71,11.39-1.67,22.7-3.69,33.92-6.28,39.03-9.01,75.67-23.85,109.96-44.51,18.56-11.18,36-23.89,52.37-38.08.33-.29.65-.58,1.04-.93Z"/>
  </g>
</svg>