<?xml version="1.0" encoding="UTF-8"?>
<svg id="Layer_1" xmlns="http://www.w3.org/2000/svg" viewBox="0 0 1080 1080">
  <defs>
    <style>
      .cls-1, .cls-2 {
        fill: #1f3060;
      }

      .cls-3 {
        fill: #203161;
      }

      .cls-4 {
        fill: #203160;
      }

      .cls-5 {
        fill: #1f2f60;
      }

      .cls-6 {
        fill: #fff;
      }

      .cls-7 {
        fill: #203060;
      }

      .cls-8 {
        fill: #213161;
      }

      .cls-2 {
        opacity: .18;
      }
    </style>
  </defs>
  <g>
    <g>
      <path class="cls-5" d="M216.4,296.63c.03.71-.63,1.32-1.32,1.32-4.33,0-8.67,0-13,0-.74,0-1.29-.6-1.32-1.32-.03-.71.63-1.32,1.32-1.32,4.33,0,8.67,0,13,0,.74,0,1.29.6,1.32,1.32Z"/>
      <path class="cls-5" d="M215.39,289.87c.03.71-.63,1.32-1.32,1.32h-16.2c-.74,0-1.29-.6-1.32-1.32-.03-.71.63-1.32,1.32-1.32h16.2c.74,0,1.29.6,1.32,1.32Z"/>
    </g>
    <path class="cls-5" d="M205.91,291.8c.25.26.49.52.72.8.05.06.1.12.15.19-.14-.18-.02-.02,0,.02.12.18.25.35.37.53.18.27.34.56.49.85.08.15.15.31.22.46.1.2-.1-.29.02.05.03.09.07.17.1.26.1.29.19.59.26.9.04.18.07.35.1.53,0-.05-.03-.28,0-.03,0,.11.02.21.02.32.02.3.01.61-.02.91,0,.08-.05.32,0,.02-.01.07-.02.14-.04.21-.03.18-.08.35-.13.52-.04.14-.09.28-.14.41-.11.33.08-.15-.01.04-.04.08-.07.15-.11.23-.12.24-.27.46-.42.68-.16.25.14-.16.01-.01-.04.05-.08.09-.12.14-.09.11-.18.21-.28.31-.21.22-.45.4-.67.61-.13.13.19-.13.04-.03-.07.05-.13.1-.2.14-.11.08-.22.15-.33.22-.27.17-.55.32-.84.46-.07.04-.5.22-.2.1-.13.05-.25.1-.38.15-.32.12-.66.22-.99.3-.17.04-.34.08-.51.11-.07.01-.14.02-.21.03-.35.06.29-.02-.06,0s-.69.05-1.04.04c-.17,0-.35-.01-.52-.03-.01,0-.35-.03-.13-.01.2.02-.09-.01-.13-.02-.37-.06-.74-.16-1.1-.28-1.26-.43-2.2,1.32-1.28,2.2,3.84,3.7,7.75,7.33,11.73,10.89.51.46,1.37.54,1.87,0,.46-.5.55-1.37,0-1.87-3.97-3.56-7.89-7.19-11.73-10.89l-1.28,2.2c2.83.97,6.24.3,8.63-1.45,1.24-.91,2.2-2.03,2.77-3.48s.58-3.19.16-4.72c-.51-1.86-1.6-3.52-2.93-4.89-.48-.5-1.39-.52-1.87,0s-.51,1.34,0,1.87h0Z"/>
  </g>
  <circle class="cls-2" cx="291.69" cy="75.83" r="363.31"/>
  <circle class="cls-2" cx="118.05" cy="224.88" r="363.31"/>
  <g>
    <path class="cls-1" d="M258.88,307.43c-3.92-4.42-4.82-9.16-4.8-14.32.08-22.57.04-45.14.04-67.71,0-3.33.76-4.65,2.69-4.71,1.97-.06,2.82,1.39,2.82,4.8,0,22.73,0,45.46,0,68.19,0,9.01,4.75,13.75,13.76,13.75,23.36,0,46.72-.13,70.08.07,8.4.07,13.65-5.89,13.6-13.54-.21-33.66-.09-67.31-.09-100.97,0-8.64-4.7-13.32-13.36-13.32-23.6,0-47.2,0-70.79,0-8.37,0-13.22,4.88-13.24,13.27-.01,6.02-.04,12.04.02,18.06.02,2.01-.54,3.49-2.71,3.73-1.69.18-2.83-1.3-2.84-3.61-.03-6.41-.13-12.83.03-19.24.26-10.65,7.73-17.8,18.42-17.81,10.53-.01,21.06-.04,31.6.04,1.7.01,2.41-.3,2.25-2.17-.18-2.12-.05-4.27-.03-6.41.02-1.84.88-3.17,2.79-3.15,1.87.02,2.78,1.25,2.75,3.15-.03,2.14.14,4.29-.05,6.41-.17,1.89.58,2.18,2.27,2.17,9.98-.08,19.95-.05,29.93-.04,11.14.01,18.58,7.45,18.58,18.63.01,33.89.01,67.79,0,101.68,0,11.08-7.32,18.56-18.37,18.57-39.99.05-79.98.02-119.97.03-1.76,0-3.4-.15-3.86-2.27-.39-1.82.87-3.22,3.06-3.24,5.07-.05,10.14-.02,15.2-.02,6.54,0,13.09,0,20.21,0Z"/>
    <path class="cls-1" d="M236.08,271.4c-2.18-14.9-10.56-25.35-24.83-30.17-14.2-4.8-26.97-1.44-37.8,8.93-.95.91-1.84,1.26-3.11,1.25-7.44-.04-14.88-.03-22.33-.02-5.11,0-7.29,2.23-7.31,7.4,0,1.5,0,3.01,0,4.51-.02,2.13.77,4.94-.28,6.22-1.23,1.48-4.14.42-6.31.48-4.7.11-6.94,2.47-7.16,7.22-.31,6.63.84,13.24.09,19.88-.3,2.66-.05,5.38-.05,8.07,0,5.56,2.19,7.78,7.73,7.79,11.16.01,22.33,0,33.49,0v-.13c11.32,0,22.66.44,33.95-.09,20.94-.99,36.96-20.59,33.93-41.34ZM147.94,256.87c6.54.05,13.08.02,20.04.02-2.24,4.04-3.87,7.87-4.62,12.01-.18,1.03-.8,1.14-1.68,1.14-4.58-.03-9.16-.07-13.74.02-1.45.03-1.7-.59-1.67-1.83.06-3.16.06-6.32,0-9.48-.02-1.24.25-1.89,1.68-1.88ZM132.57,286.7c.11-3.08.08-6.18.01-9.26-.03-1.25.21-1.84,1.66-1.83,8.94.06,17.89.04,26.84.01,1.02,0,1.57.12,1.56,1.38-.01,3.42.61,6.77,1.74,10,.49,1.4.09,1.75-1.33,1.73-4.83-.07-9.66-.03-14.49-.03s-9.34-.06-14.01.03c-1.58.03-2.03-.49-1.98-2.03ZM175.13,307.43c-13.36,0-26.73-.04-40.09.04-2,.01-2.59-.58-2.48-2.53.15-2.92.09-5.85.02-8.78-.04-1.37.29-1.96,1.82-1.95,10.52.06,21.03.04,31.55.02.94,0,1.61.16,2.15,1.06,2.76,4.62,6.44,8.37,10.89,11.38.16.11.25.33.54.76h-4.39ZM199.53,307.43c-17.48-.02-31.4-14.21-31.3-31.92.1-17.02,14.3-30.78,31.71-30.71,16.96.07,30.91,14.26,30.84,31.38-.07,17.23-14.1,31.27-31.25,31.25ZM199.72,249.15c-13.88-.07-25.28,10.18-27.03,24.29-1.58,12.73,7.29,25.43,20.14,28.72,5.35,1.37,10.66,1.11,15.87-.78,1.69-.61,2.39-1.84,1.9-3.54-.52-1.78-1.9-2.17-3.58-1.74-.69.17-1.36.39-2.05.57-8.98,2.35-18.34-1.27-23.37-9.03-5-7.73-4.45-17.89,1.35-25.02,5.86-7.2,15.52-9.78,24.21-6.48,14.4,5.48,18.31,23.81,7.45,34.96-1.98,2.03-2.31,3.57-1.05,4.89,1.36,1.42,2.98,1.13,5.06-1,5.1-5.22,7.69-11.48,7.78-16.78.11-16.78-11.92-28.98-26.68-29.05Z"/>
    <path class="cls-1" d="M311.86,153.69c0-16.15.02-32.3,0-48.46,0-7.11-4.05-11.19-11.18-11.2-34.12-.02-68.25,0-102.37-.03-1.72,0-2.97.55-4.18,1.76-13.13,13.18-26.28,26.34-39.49,39.45-1.46,1.45-2.11,2.91-2.1,4.99.07,17.5.04,35,.04,52.49s0,34.68,0,52.02c0,.79-.05,1.59.05,2.37.18,1.46,1.13,2.27,2.53,2.38,1.31.1,2.24-.6,2.74-1.84.4-.99.25-2.03.25-3.06,0-33.49.03-66.99-.04-100.48,0-2.19.38-2.94,2.77-2.9,9.1.16,18.21.07,27.31.06,7.72,0,11.67-3.95,11.68-11.68.02-9.19.08-18.37-.05-27.55-.03-2.18.63-2.57,2.65-2.56,32.46.06,64.92.04,97.38.05,5.02,0,6.45,1.45,6.46,6.52,0,15.68,0,31.35.01,47.03,0,.94-.01,1.92.21,2.82.32,1.29,1.27,1.99,2.62,1.95,1.45-.04,2.36-.83,2.63-2.25.11-.62.07-1.26.07-1.9ZM194.33,130.72c-.11,3-1.83,4.9-4.66,4.92-8.86.06-17.72,0-26.59-.01-.12,0-.23-.14-.15-.09,10.43-10.43,20.89-20.9,31.42-31.43,0,6.43,0,12.95,0,19.48,0,2.37.07,4.75-.02,7.12Z"/>
    <path class="cls-1" d="M266.11,108.18c-15.73.06-28.48,12.86-28.48,28.6,0,15.71,12.82,28.59,28.48,28.62,15.68.02,28.57-12.82,28.6-28.49.03-15.86-12.84-28.79-28.6-28.72ZM270.66,114.19c8.76,1.47,16.82,9.7,18.21,18.49.21,1.33-.3,1.42-1.35,1.4-2.85-.05-5.7-.02-8.55-.02s-5.54-.04-8.31.02c-1.11.02-1.72-.1-1.7-1.49.08-5.7.09-11.4,0-17.11-.02-1.51.64-1.48,1.71-1.3ZM288.66,141.6c-2.39,11.2-12.73,18.95-24.41,18.14-10.72-.75-20.19-10.03-20.93-20.5-.86-12.19,6.59-22.52,17.95-25.01,1.73-.38,2.18.05,2.12,1.77-.12,3.32-.03,6.65-.03,9.97s-.02,6.65,0,9.97c.02,2.62.95,3.6,3.57,3.62,6.65.04,13.3.06,19.95-.01,1.61-.02,2.18.16,1.78,2.05Z"/>
    <path class="cls-1" d="M347.86,192.58c0-2.85-.97-3.79-3.88-3.79-23.74,0-47.48,0-71.22,0-3.05,0-3.88.85-3.88,3.99-.02,7.83-.02,15.67,0,23.5,0,3.14.76,3.86,3.96,3.86,11.87,0,23.74,0,35.61,0s23.74,0,35.61,0c2.91,0,3.79-.89,3.8-3.82.01-7.91.02-15.83,0-23.74ZM340.3,214.64c-10.69-.06-21.38-.03-32.07-.03s-21.06-.04-31.6.04c-1.71.01-2.34-.34-2.3-2.2.13-5.38.09-10.77.02-16.16-.02-1.39.26-1.92,1.8-1.91,21.46.05,42.92.05,64.38,0,1.61,0,1.75.61,1.74,1.93-.06,5.46-.09,10.93.01,16.39.03,1.58-.45,1.96-1.98,1.95Z"/>
    <path class="cls-1" d="M222.18,202.14c-2.42,0-4.22-.01-6.01,0-1.81.02-2.97-.92-3.01-2.64-.05-1.86,1.14-2.84,3.05-2.84,3.88,0,7.75,0,11.63,0,2.07,0,3.04,1.18,3.07,3.13.05,3.8.04,7.6,0,11.39-.02,1.81-.87,3.14-2.8,3.14-1.91,0-2.78-1.26-2.79-3.12,0-1.24,0-2.49,0-4.19-.83.78-1.38,1.28-1.91,1.8-6.66,6.66-13.31,13.32-19.97,19.97-2.43,2.43-3.45,2.42-5.91-.03-2.3-2.29-4.66-4.52-6.85-6.91-1.15-1.26-1.8-1.4-3.1-.06-5.5,5.68-11.15,11.23-16.75,16.81-1.83,1.82-3.43,2.08-4.71.81-1.27-1.26-1.02-2.93.76-4.71,6.48-6.5,12.97-12.99,19.46-19.47,2.18-2.18,3.32-2.16,5.56.06,2.53,2.51,5.04,5.03,7.55,7.55.57.58.97,1.13,1.85.25,6.78-6.85,13.61-13.66,20.89-20.94Z"/>
    <path class="cls-1" d="M319.69,232.43c-.02-1.85-1.04-3.03-2.93-3.05-5.61-.06-11.22-.07-16.83,0-1.85.02-2.89,1.1-2.89,3.04,0,4.35,0,8.7,0,13.04,0,2.16,1.1,3.17,3.23,3.15,2.69-.02,5.38,0,8.06,0s5.38-.03,8.06,0c2.17.03,3.26-1.09,3.29-3.15.06-4.35.06-8.7,0-13.04ZM314.15,236.5c-.03.23,0,.47,0,.71q.03,5.83-5.81,5.83c-5.73,0-5.65,0-5.76-5.7-.04-1.94.46-2.62,2.46-2.47,2.51.18,5.04.11,7.56.02,1.27-.05,1.73.41,1.56,1.62Z"/>
    <path class="cls-1" d="M347.85,232.72c-.02-2.3-1.02-3.33-3.34-3.35-5.38-.06-10.75-.04-16.13,0-2.09.01-3.23,1.11-3.23,3.24-.01,4.27-.02,8.54,0,12.81.01,2.09,1.06,3.22,3.23,3.2,2.69-.02,5.38,0,8.07,0s5.38.03,8.06,0c2.32-.03,3.32-.99,3.34-3.31.05-4.19.04-8.38,0-12.57ZM339.85,243.08c-2.5-.19-5.04-.11-7.55-.02-1.27.05-1.73-.39-1.55-1.61.03-.23,0-.47,0-.71q-.02-5.84,5.81-5.84c5.69,0,5.6,0,5.73,5.74.04,1.97-.45,2.59-2.44,2.44Z"/>
    <path class="cls-1" d="M319.7,257.55c-.03-2.38-.98-3.34-3.31-3.37-5.37-.05-10.75-.05-16.12,0-2.34.02-3.21.98-3.23,3.38-.03,4.11-.03,8.22,0,12.33.02,2.64.87,3.45,3.6,3.47,2.53.02,5.06,0,7.59,0,2.69,0,5.37.02,8.06,0,2.37-.03,3.37-.92,3.41-3.24.07-4.19.06-8.38,0-12.56ZM314.16,265.84c.12,1.47-.26,2.2-1.91,2.02-1.33-.14-2.69-.03-4.04-.03-5.63,0-5.55,0-5.65-5.65-.04-1.9.36-2.71,2.43-2.54,2.36.19,4.76.16,7.12,0,1.74-.11,2.19.55,2.04,2.15-.13,1.34-.11,2.7,0,4.03Z"/>
    <path class="cls-1" d="M347.86,257.44c0-2.1-1.01-3.26-3.17-3.27-5.46,0-10.91,0-16.36,0-2.15,0-3.18,1.15-3.18,3.25-.01,4.27-.03,8.54,0,12.81.02,2.1,1.12,3.17,3.28,3.14,2.69-.04,5.37,0,8.06,0s5.22.02,7.83,0c2.51-.02,3.5-.93,3.53-3.35.04-4.19.02-8.38,0-12.57ZM339.84,267.88c-2.52-.19-5.07-.09-7.6-.03-1.1.03-1.67-.25-1.49-1.45.05-.31,0-.63,0-.95q-.02-5.77,5.72-5.77c5.78,0,5.68,0,5.81,5.73.05,1.97-.45,2.61-2.45,2.46Z"/>
    <path class="cls-1" d="M319.69,281.97c-.03-1.94-1.1-3.04-3.17-3.02-2.76.03-5.53,0-8.3,0-2.61,0-5.21-.03-7.82,0-2.43.04-3.33.9-3.35,3.24-.04,4.27,0,8.53-.01,12.8,0,2.02.97,3.12,3.01,3.12,5.53.02,11.06,0,16.59,0,1.95,0,3-1.08,3.04-2.9.09-4.42.09-8.85.01-13.27ZM314.15,286.41c-.03.15,0,.31,0,.47q.02,5.82-5.84,5.82c-5.71,0-5.61,0-5.74-5.76-.05-2.03.56-2.55,2.49-2.41,2.43.17,4.88.13,7.32,0,1.5-.08,2.01.46,1.78,1.87Z"/>
    <path class="cls-1" d="M347.85,282c-.02-1.99-1.07-3.05-3.12-3.05-5.45,0-10.91.01-16.36,0-2.17,0-3.2,1.12-3.21,3.21-.03,4.27-.03,8.54,0,12.81.01,2.11,1.1,3.19,3.25,3.17,2.69-.02,5.38,0,8.06,0,2.77,0,5.53,0,8.3,0,2.05,0,3.07-1.11,3.09-3.09.04-4.35.04-8.7,0-13.04ZM339.61,292.75c-2.44-.22-4.91-.1-7.36-.03-1.11.03-1.65-.29-1.5-1.46.03-.23-.01-.48,0-.71.16-1.95-.88-4.55.44-5.67,1.1-.93,3.62-.19,5.51-.19,5.54-.12,5.44-.12,5.58,5.32.05,2.11-.43,2.94-2.68,2.73Z"/>
    <path class="cls-1" d="M291.48,232.48c0-2.05-1.1-3.1-3.07-3.12-5.45-.05-10.9-.04-16.35,0-2.1.01-3.19,1.1-3.19,3.25.01,4.27-.04,8.53.02,12.8.03,2.31,1.01,3.18,3.41,3.2,2.61.02,5.21,0,7.82,0s5.37-.03,8.06,0c2.14.03,3.27-.96,3.29-3.1.02-4.35,0-8.69.01-13.04ZM284.09,243.06c-1.33-.1-2.68-.02-4.02-.02-5.73,0-5.63,0-5.75-5.76-.04-2.04.62-2.54,2.52-2.41,2.43.16,4.89.13,7.32,0,1.51-.08,1.93.49,1.83,1.9-.1,1.49-.12,3,0,4.49.13,1.54-.52,1.91-1.91,1.81Z"/>
    <path class="cls-4" d="M291.47,257.25c0-2.03-1.05-3.07-3.07-3.07-5.45-.01-10.9,0-16.35,0-2.15,0-3.18,1.09-3.18,3.22,0,4.27,0,8.53,0,12.8,0,2.12,1.03,3.21,3.2,3.19,2.76-.02,5.53,0,8.29,0,2.61,0,5.21-.02,7.82,0,2.13.03,3.28-.94,3.29-3.1.02-4.34.01-8.69,0-13.03ZM283.56,267.87c-2.52-.18-5.06-.09-7.59-.02-1.25.04-1.76-.41-1.6-1.65.02-.16,0-.32,0-.47q-.08-6.04,5.95-6.04c5.66,0,5.58,0,5.69,5.65.04,1.92-.4,2.68-2.45,2.53Z"/>
    <path class="cls-1" d="M291.46,282.24c-.03-2.34-.96-3.21-3.36-3.25-2.61-.04-5.21,0-7.82,0s-5.37-.03-8.05,0c-2.4.03-3.31.9-3.34,3.27-.05,4.19,0,8.37-.03,12.56-.02,2.25,1.02,3.4,3.27,3.4,5.37,0,10.74.01,16.11,0,2.09,0,3.24-1.02,3.23-3.19,0-4.26.03-8.53-.02-12.79ZM283.69,292.71c-2.51-.17-5.04-.1-7.56-.02-1.29.04-1.97-.31-1.77-1.7.02-.15,0-.31,0-.47q-.08-6.02,5.94-6.02c5.71,0,5.63,0,5.72,5.82.03,1.82-.4,2.52-2.33,2.39Z"/>
    <path class="cls-3" d="M182.58,186.33c-4.51,0-9.02-.02-13.53,0-1.94.01-3.52-.44-3.67-2.73-.13-1.9,1.17-2.9,3.73-2.91,9.02-.01,18.03-.01,27.05,0,2.48,0,3.9,1.07,3.88,2.84-.02,1.76-1.42,2.77-3.93,2.78-4.51.01-9.02,0-13.53,0Z"/>
    <path class="cls-3" d="M182.67,161.18c-4.59,0-9.17.01-13.76,0-2.41,0-3.62-.95-3.53-2.81.1-2.15,1.54-2.76,3.4-2.76,9.25,0,18.5,0,27.75,0,1.91,0,3.27.74,3.47,2.76.17,1.71-1.29,2.81-3.58,2.82-4.59.02-9.17,0-13.76,0Z"/>
    <path class="cls-1" d="M182.53,173.72c-4.5,0-9.01,0-13.51,0-1.91,0-3.54-.4-3.64-2.73-.08-1.85,1.1-2.78,3.55-2.79,9.17-.02,18.33-.02,27.5,0,2.3,0,3.75,1.12,3.58,2.82-.2,2.04-1.59,2.72-3.49,2.71-4.66-.02-9.32,0-13.99,0Z"/>
    <path class="cls-8" d="M213.96,186.32c-1.1,0-2.21.07-3.31-.01-1.74-.12-2.84-1.1-2.82-2.86.02-1.64,1.1-2.64,2.72-2.71,2.36-.1,4.74-.13,7.1.02,1.6.1,2.62,1.13,2.57,2.83-.05,1.68-1.08,2.59-2.7,2.71-1.18.09-2.37.02-3.55.02Z"/>
    <path class="cls-8" d="M214.12,161.17c-1.18,0-2.37.04-3.55,0-1.68-.07-2.66-1.05-2.75-2.66-.08-1.53.86-2.68,2.34-2.79,2.59-.18,5.2-.19,7.79.01,1.48.11,2.36,1.26,2.26,2.83-.1,1.54-1.01,2.47-2.55,2.59-1.18.09-2.36.02-3.55.02Z"/>
    <path class="cls-7" d="M214.14,168.23c1.18,0,2.36-.06,3.54.01,1.57.1,2.47,1.03,2.54,2.57.07,1.53-.71,2.69-2.28,2.78-2.59.14-5.19.15-7.77,0-1.54-.09-2.39-1.24-2.33-2.75.07-1.5.95-2.5,2.53-2.59,1.25-.07,2.52-.01,3.77-.01,0,0,0,0,0-.01Z"/>
    <path class="cls-6" d="M226.39,278.2c-.09,5.3-2.68,11.57-7.78,16.78-2.08,2.12-3.69,2.42-5.06,1-1.26-1.32-.93-2.85,1.05-4.89,10.86-11.14,6.95-29.48-7.45-34.96-8.69-3.3-18.34-.72-24.21,6.48-5.81,7.13-6.35,17.29-1.35,25.02,5.03,7.77,14.39,11.39,23.37,9.03.69-.18,1.36-.4,2.05-.57,1.68-.42,3.06-.04,3.58,1.74.49,1.69-.21,2.92-1.9,3.54-5.21,1.89-10.53,2.15-15.87.78-12.84-3.29-21.71-15.99-20.14-28.72,1.75-14.11,13.15-24.36,27.03-24.29,14.75.07,26.79,12.27,26.68,29.05Z"/>
    <path class="cls-1" d="M226.39,278.2c-.09,5.3-2.68,11.57-7.78,16.78-2.08,2.12-3.69,2.42-5.06,1-1.26-1.32-.93-2.85,1.05-4.89,10.86-11.14,6.95-29.48-7.45-34.96-8.69-3.3-18.34-.72-24.21,6.48-5.81,7.13-6.35,17.29-1.35,25.02,5.03,7.77,14.39,11.39,23.37,9.03.69-.18,1.36-.4,2.05-.57,1.68-.42,3.06-.04,3.58,1.74.49,1.69-.21,2.92-1.9,3.54-5.21,1.89-10.53,2.15-15.87.78-12.84-3.29-21.71-15.99-20.14-28.72,1.75-14.11,13.15-24.36,27.03-24.29,14.75.07,26.79,12.27,26.68,29.05Z"/>
  </g>
</svg>