<?xml version="1.0" encoding="UTF-8"?>
<svg id="Layer_1" xmlns="http://www.w3.org/2000/svg" viewBox="0 0 1080 1080">
  <defs>
    <style>
      .cls-1, .cls-2 {
        fill: #1f3060;
      }

      .cls-3 {
        fill: #1f2f60;
      }

      .cls-2 {
        opacity: .18;
      }
    </style>
  </defs>
  <g>
    <path class="cls-3" d="M158.96,362h29.41c3.86,0,3.87-6,0-6h-29.41c-3.86,0-3.87,6,0,6h0Z"/>
    <path class="cls-3" d="M173.14,362.94c2.01,2.09,3.58,4.54,4.15,7.39.41,2.07-.07,4.66-1.43,6.33-2.9,3.58-8.59,5.17-13.12,3.66-2.87-.96-5.02,2.99-2.92,5.01,6.98,6.72,14.08,13.31,21.29,19.77,1.21,1.08,3.05,1.19,4.24,0,1.1-1.1,1.21-3.16,0-4.24-7.21-6.46-14.31-13.05-21.29-19.77l-2.92,5.01c6.92,2.31,15.43-.38,19.76-6.23,5.03-6.79,1.8-15.67-3.52-21.17-2.69-2.78-6.93,1.46-4.24,4.24h0Z"/>
    <path class="cls-3" d="M162.25,374.3c8.6,0,17.19,0,25.79-.01,3.86,0,3.87-6,0-6-8.6,0-17.19,0-25.79.01-3.86,0-3.87,6,0,6h0Z"/>
  </g>
  <circle class="cls-2" cx="299.69" cy="179.83" r="363.31"/>
  <circle class="cls-2" cx="126.05" cy="328.88" r="363.31"/>
  <g>
    <path class="cls-1" d="M234.07,354.38c-10.81-15.57-21.51-31.21-32.28-46.81-.86-1.25-1.08-2.54-1.29-4-1.24-8.74,1.12-16.18,7.46-22.35.77-.76,1.32-1.74,1.96-2.61,4.91-6.59,4.94-14.24.1-20.02-4.84-5.79-12.44-7.14-19.73-3.52-4.38,2.18-8.83,4.24-13.09,6.63-2.1,1.17-3.71.96-5.71-.1-4.71-2.5-9.46-4.97-14.34-7.14-5.9-2.62-11.63-1.9-16.53,2.33-4.88,4.22-6.48,9.7-4.85,16,.89,3.44,3,6.26,5.36,8.74,5.79,6.06,8.42,12.97,7.2,21.39-.28,1.92-.54,3.6-1.68,5.24-12.83,18.58-25.58,37.22-38.42,55.79-4.71,6.81-7.6,14.22-7.88,22.51-.79,23.66,17.48,42.58,41.17,42.71,10.44.05,20.89,0,31.32,0h30.5c6.09,0,5.97,0,5.95-6,0-2.33-.78-2.78-2.96-2.76-21.43.08-42.85.1-64.28.03-13.1-.04-23.18-5.7-29.28-17.33-6.05-11.52-5-22.95,2.31-33.68,12.83-18.8,25.79-37.51,38.63-56.3.89-1.29,1.82-1.69,3.32-1.68,11.53.06,23.06.08,34.59-.02,1.8-.01,2.73.63,3.69,2.04,9.97,14.6,20.01,29.16,30.02,43.72,3.24,4.71,3.15,4.57,8.02,1.51,2.22-1.4,2.02-2.4.7-4.31ZM185.31,302.75c-8.71,0-17.41-.05-26.12.04-1.74.02-2.27-.4-2.26-2.21.04-6.55-.04-6.55,6.59-6.55h10.89c5.17,0,10.33.06,15.5-.03,1.51-.03,1.96.37,1.98,1.93.1,6.82.15,6.82-6.58,6.82ZM195.28,283.71c-.91,1.29-1.92,1.64-3.4,1.63-5.89-.07-11.8-.03-17.7-.03s-11.61-.05-17.42.03c-1.42.02-2.32-.4-3.15-1.56-2.59-3.61-5.33-7.11-7.96-10.69-2.33-3.18-2.32-6.37-.11-8.96,2.2-2.58,5.36-3.09,8.88-1.35,5.68,2.8,11.38,5.58,17.01,8.5,2.04,1.06,3.84,1.1,5.9.04,5.63-2.91,11.32-5.7,17-8.5,3.68-1.81,6.85-1.27,9.07,1.45,2.14,2.63,2.06,5.74-.32,8.98-2.58,3.5-5.29,6.91-7.8,10.47Z"/>
    <path class="cls-1" d="M283.39,172.81c-.02-3.55-1.61-5.17-5.15-5.17-37.23-.01-74.44-.01-111.67,0-3.68,0-5.21,1.61-5.23,5.37-.01,4.9,0,9.8,0,14.71,0,4.77,1.3,6.18,6.17,6,2.28-.08,2.59.73,2.59,2.73-.07,15.97-.04,31.95-.04,47.93,0,6.1,0,6.01,6.22,6.12,1.98.03,2.57-.39,2.55-2.49-.09-17.16,0-34.32-.11-51.48-.01-2.24.49-2.82,2.78-2.81,27.24.09,54.48.09,81.72,0,2.25,0,2.81.5,2.81,2.78-.09,26.6-.06,53.2-.06,79.8v77.35c0,5.76,0,5.62,5.71,5.81,2.5.09,3.07-.63,3.06-3.08-.07-53.11-.04-106.22-.12-159.33,0-2.72.59-3.53,3.35-3.36,3.87.25,5.41-1.48,5.43-5.37.02-5.17.03-10.35,0-15.52ZM268.38,185.06c-31.86,0-63.72-.03-95.58.05-2.25,0-2.87-.5-2.81-2.78.17-5.98.05-5.99,6.08-5.99h46.57c16.52,0,33.04.04,49.56-.05,2.02,0,2.57.46,2.53,2.51-.12,6.25-.02,6.26-6.35,6.26Z"/>
    <path class="cls-1" d="M292.84,407.08c-1.54-1.75-4.4-2.19-5.43-3.8-.99-1.56.73-4.27.22-6.54-.1-.44-.18-.89-.35-1.32-.47-1.17-.02-1.68,1.1-2.21,6.22-2.98,9.19-8.76,7.74-14.83-1.53-6.42-6.56-10.24-13.55-10.25-8.45-.01-16.89,0-25.34,0s-17.44-.07-26.16.02c-8.52.09-14.54,7.65-12.67,15.87.36,1.58,0,2.09-1.42,2.75-4.95,2.33-7.65,6.36-7.65,11.85,0,5.49,2.7,9.52,7.65,11.86,1.41.66,1.8,1.16,1.44,2.75-1.84,7.99,3.96,15.76,12.12,15.84,17.79.17,35.6.17,53.39,0,5.45-.05,9.44-3.02,11.52-8.13,2.09-5.12,1.02-9.76-2.6-13.87ZM231.78,376.86c16.96-.02,33.91-.02,50.86,0,3.15,0,5.13,1.76,5.1,4.4-.03,2.62-2,4.27-5.19,4.32-.45,0-.9,0-1.36,0h-23.93c-8.43,0-16.86,0-25.29,0-3.22,0-5.17-1.64-5.23-4.27-.06-2.64,1.92-4.43,5.04-4.43ZM218.01,398.58c.04-2.64,1.99-4.24,5.2-4.3.45,0,.91,0,1.36,0h48.69c3.68,0,5.71,1.52,5.76,4.28.05,2.78-2.01,4.43-5.61,4.43-16.77,0-33.54.01-50.32,0-3.15,0-5.12-1.77-5.08-4.41ZM286.88,418.62c-1.05,1.46-2.57,1.84-4.3,1.83-8.43-.04-16.86-.01-25.29-.01s-16.69,0-25.02,0c-3.47,0-5.45-1.54-5.52-4.24-.07-2.78,2-4.46,5.57-4.46,16.77,0,33.55,0,50.32-.02,2.08,0,3.71.6,4.68,2.57.76,1.56.53,3.01-.43,4.35Z"/>
    <path class="cls-1" d="M348.78,345.76c0,23.96.03,47.92-.05,71.89,0,2.18.37,3.04,2.75,2.84,2.89-.24,5.81,0,8.71-.08,1.28-.04,1.66.32,1.71,1.65.31,7.1.35,7.09-6.59,7.09-17.34,0-34.68-.04-52.01.05-2.04.01-2.56-.49-2.52-2.52.12-6.24.02-6.25,6.36-6.25,10.17,0,20.33-.04,30.5.04,1.76.01,2.48-.23,2.47-2.28-.07-46.47-.07-92.94,0-139.42,0-2.15-.85-2.22-2.53-2.22-17.16.05-34.31-.02-51.47.09-2.28.01-2.85-.55-2.79-2.81.17-5.97.05-5.97,6.1-5.97,17.79,0,35.58,0,53.37,0,4.62,0,5.97,1.35,5.97,6,0,23.96,0,47.92,0,71.89Z"/>
    <path class="cls-1" d="M292.11,204.15c0-5.73.05-11.35-.03-16.97-.02-1.56.22-2.18,2.02-2.18,6.73-.02,6.73-.1,6.73,6.7,0,4.27.06,8.54-.04,12.8-.03,1.36.42,1.92,1.71,2.15,1.78.32,3.55.72,5.3,1.2,1.56.43,1.81-.22,1.78-1.6-.08-3.54.03-7.08-.05-10.62-.03-1.33.22-1.86,1.74-1.9,7-.2,7-.26,7,6.69,0,2.36.17,4.74-.05,7.08-.2,2.21.66,3.1,2.75,3.23.89.06,1.79.32,2.65.59,2.01.64,3.33,1.98,3.34,4.14.04,14.07.01,28.14.05,42.22,0,1.24-.45,1.44-1.57,1.51-7.17.4-7.17.43-7.17-6.78,0-10.17-.08-20.34.06-30.5.03-2.24-.57-3.09-2.78-3.55-10.2-2.11-20.35-4.45-30.54-6.61-1.95-.41-2.6-1.07-2.09-3.16,1.45-5.97,1.36-5.99,7.42-4.65.51.11,1.05.13,1.78.22Z"/>
    <path class="cls-1" d="M196.21,211.21h-2.17c-7.25,0-7.23,0-6.57-7.35.09-1.04.36-1.39,1.41-1.38,4.89.04,9.78.04,14.68,0,1.05,0,1.52.33,1.38,1.39-.01.09,0,.18,0,.27q.37,7.08-6.55,7.08h-2.17Z"/>
    <path class="cls-1" d="M222.37,211.21h-2.17c-7.25,0-7.22,0-6.58-7.34.09-1.03.34-1.4,1.4-1.39,4.89.04,9.78.04,14.68,0,1.04,0,1.53.3,1.39,1.38-.01.09,0,.18,0,.27q.38,7.09-6.54,7.09c-.72,0-1.45,0-2.17,0Z"/>
    <path class="cls-1" d="M248.52,211.21h-2.17c-7.25,0-7.23,0-6.57-7.35.09-1.04.36-1.39,1.41-1.38,4.89.04,9.78.04,14.68,0,1.05,0,1.52.33,1.38,1.39-.01.09,0,.18,0,.27q.37,7.08-6.55,7.08h-2.17Z"/>
    <path class="cls-1" d="M196.2,228.65c-.72,0-1.45,0-2.17,0-7.26,0-7.23,0-6.57-7.36.09-1.05.37-1.39,1.42-1.38,4.89.04,9.78.04,14.68,0,1.06,0,1.51.34,1.37,1.39-.01.09,0,.18,0,.27q.37,7.07-6.55,7.07c-.72,0-1.45,0-2.17,0Z"/>
    <path class="cls-1" d="M222.09,228.65c-.63,0-1.27,0-1.9,0-7.25,0-7.23,0-6.58-7.35.09-1.04.36-1.39,1.41-1.38,4.89.04,9.78.04,14.68,0,1.05,0,1.52.32,1.38,1.39-.01.09,0,.18,0,.27q.38,7.08-6.54,7.08c-.82,0-1.63,0-2.45,0Z"/>
    <path class="cls-1" d="M248.72,219.93c2.08,0,4.18.15,6.25-.04,2.01-.18,2.34.61,2.32,2.43-.07,6.33,0,6.33-6.24,6.33-3.08,0-6.16-.06-9.24.03-1.43.04-2.02-.22-2.04-1.87-.11-6.88-.18-6.88,6.79-6.88.72,0,1.45,0,2.17,0Z"/>
    <path class="cls-1" d="M196.23,246.08c-.82,0-1.63.04-2.45,0-2.05-.13-5.15.92-5.9-.43-1.04-1.89-.32-4.73-.41-7.16-.04-1.06.56-1.13,1.37-1.13,4.89.02,9.78.03,14.68-.01,1.02,0,1.34.29,1.44,1.36.68,7.38.71,7.37-6.55,7.37-.72,0-1.45,0-2.17,0Z"/>
    <path class="cls-1" d="M222.33,246.08c-2.36,0-4.71-.07-7.07.03-1.35.06-1.61-.44-1.65-1.7-.28-7.05-.31-7.05,6.61-7.05,2.99,0,5.98.09,8.97-.04,1.58-.07,1.91.49,1.93,1.98.09,6.77.14,6.77-6.61,6.77-.72,0-1.45,0-2.17,0Z"/>
    <path class="cls-1" d="M248.52,237.36c.72,0,1.45,0,2.17,0,7.25,0,7.23,0,6.57,7.35-.09,1.04-.36,1.39-1.41,1.38-4.89-.04-9.78-.04-14.68,0-1.05,0-1.52-.33-1.38-1.39.01-.09,0-.18,0-.27q-.37-7.08,6.55-7.08c.72,0,1.45,0,2.17,0Z"/>
    <path class="cls-1" d="M248.36,263.52c-2.27,0-4.53-.09-6.79.03-1.47.08-1.76-.46-1.8-1.84-.17-6.91-.21-6.91,6.74-6.91,2.99,0,5.98.08,8.97-.03,1.47-.06,1.77.45,1.8,1.84.16,6.92.2,6.91-6.74,6.91-.72,0-1.45,0-2.17,0Z"/>
    <path class="cls-1" d="M248.41,280.95c-2.36,0-4.71-.05-7.07.02-1.14.03-1.74-.27-1.55-1.5.01-.09,0-.18,0-.27q-.28-6.97,6.65-6.97c3.08,0,6.16.04,9.24-.02,1.14-.02,1.74.27,1.55,1.5-.01.09,0,.18,0,.27q.28,6.97-6.65,6.97c-.72,0-1.45,0-2.17,0Z"/>
    <path class="cls-1" d="M248.61,289.67c2.27,0,4.53.07,6.79-.03,1.36-.06,1.83.27,1.87,1.76.19,6.98.24,6.98-6.68,6.98-2.99,0-5.98-.06-8.97.03-1.36.04-1.83-.27-1.87-1.76-.19-6.98-.25-6.98,6.68-6.98.72,0,1.45,0,2.17,0Z"/>
    <path class="cls-1" d="M296.59,289.67c2.36,0,4.71.05,7.07-.02,1.15-.04,1.73.28,1.54,1.51-.01.09,0,.18,0,.27q.27,6.96-6.66,6.96c-3.08,0-6.16-.04-9.24.02-1.15.02-1.73-.28-1.54-1.51.01-.09,0-.18,0-.27q-.27-6.96,6.66-6.96c.72,0,1.45,0,2.17,0Z"/>
    <path class="cls-1" d="M322.61,298.39h-2.17c-7.26,0-7.23,0-6.56-7.37.1-1.06.4-1.38,1.43-1.37,4.89.04,9.78.04,14.68,0,1.07,0,1.31.38,1.39,1.4.63,7.34.65,7.34-6.59,7.34-.72,0-1.45,0-2.17,0Z"/>
    <path class="cls-1" d="M248.52,307.11h2.17c7.25,0,7.23,0,6.57,7.35-.09,1.04-.36,1.39-1.41,1.38-4.89-.04-9.78-.04-14.68,0-1.05,0-1.52-.33-1.38-1.39.01-.09,0-.18,0-.27q-.37-7.08,6.55-7.08h2.17Z"/>
    <path class="cls-1" d="M296.34,315.82c-2.36,0-4.71-.05-7.07.02-1.17.04-1.49-.32-1.56-1.52-.43-7.23-.47-7.22,6.71-7.22,3.08,0,6.16.05,9.24-.02,1.17-.03,1.49.32,1.56,1.52.43,7.23.47,7.22-6.71,7.22-.72,0-1.45,0-2.17,0Z"/>
    <path class="cls-1" d="M322.88,307.11c.72,0,1.45-.04,2.17,0,2.05.14,5.15-.92,5.89.44,1.03,1.89.32,4.73.4,7.16.04,1.06-.57,1.12-1.37,1.12-4.89-.01-9.78-.03-14.68.01-1.03,0-1.33-.31-1.43-1.37-.67-7.37-.7-7.37,6.56-7.37h2.45Z"/>
    <path class="cls-1" d="M248.52,324.54h2.17c7.25,0,7.23,0,6.58,7.35-.09,1.04-.36,1.39-1.41,1.38-4.89-.04-9.78-.04-14.68,0-1.05,0-1.52-.32-1.38-1.39.01-.09,0-.18,0-.27q-.38-7.08,6.54-7.08h2.17Z"/>
    <path class="cls-1" d="M296.2,333.26c-.63,0-1.27,0-1.9,0-7.25,0-7.23,0-6.58-7.35.09-1.04.36-1.39,1.41-1.38,4.89.04,9.78.04,14.68,0,1.05,0,1.52.32,1.38,1.39-.01.09,0,.18,0,.27q.38,7.08-6.54,7.08h-2.45Z"/>
    <path class="cls-1" d="M296.21,350.69h-1.9c-7.25,0-7.22,0-6.58-7.35.09-1.04.35-1.4,1.4-1.39,4.89.04,9.78.04,14.68,0,1.04,0,1.53.31,1.39,1.38-.01.09,0,.18,0,.27q.38,7.08-6.54,7.08h-2.45Z"/>
    <path class="cls-1" d="M322.84,350.69c-2.26,0-4.53-.08-6.79.03-1.53.08-2.19-.18-2.2-2-.02-6.75-.11-6.75,6.66-6.75,2.9,0,5.8.07,8.7-.03,1.53-.06,2.19.18,2.2,2,.02,6.75.11,6.75-6.66,6.75-.63,0-1.27,0-1.9,0Z"/>
    <path class="cls-1" d="M322.41,368.13c-.91,0-1.82.05-2.72-.01-1.87-.13-4.87.82-5.37-.37-.9-2.16-.35-4.94-.41-7.45-.02-.97.68-.88,1.31-.88,4.89,0,9.79.04,14.68-.03,1.28-.02,1.41.53,1.46,1.61.38,7.14.4,7.14-6.78,7.14h-2.17Z"/>
    <path class="cls-1" d="M322.89,324.54h1.9c7.25,0,7.22,0,6.58,7.35-.09,1.04-.35,1.4-1.4,1.39-4.89-.04-9.78-.04-14.68,0-1.04,0-1.53-.31-1.39-1.38.01-.09,0-.18,0-.27q-.38-7.08,6.54-7.08h2.45Z"/>
    <path class="cls-1" d="M322.89,376.85h1.9c7.25,0,7.22,0,6.58,7.35-.09,1.04-.35,1.4-1.41,1.39-4.89-.04-9.78-.04-14.68,0-1.05,0-1.53-.32-1.38-1.38.01-.09,0-.18,0-.27q-.38-7.08,6.54-7.08h2.45Z"/>
    <path class="cls-1" d="M322.63,394.28h2.17c7.25,0,7.23,0,6.58,7.35-.09,1.04-.36,1.39-1.41,1.38-4.89-.04-9.78-.04-14.68,0-1.05,0-1.52-.32-1.38-1.39.01-.09,0-.18,0-.27q-.38-7.08,6.54-7.08h2.17Z"/>
    <path class="cls-1" d="M309.55,250.45q0,4.35-4.37,4.35t-4.35-4.37,4.37-4.35,4.35,4.37Z"/>
    <path class="cls-1" d="M226.96,280.95q-4.59,0-4.59-4.67,0-4.05,4.13-4.05,4.59,0,4.59,4.67,0,4.05-4.13,4.05Z"/>
    <path class="cls-1" d="M148.49,376.85q-4.59,0-4.59-4.67,0-4.05,4.13-4.05,4.59,0,4.59,4.67,0,4.05-4.13,4.05Z"/>
    <path class="cls-1" d="M226.94,254.8q4.14,0,4.14,4.3t-4.3,4.41-4.41-4.3,4.58-4.41Z"/>
    <path class="cls-1" d="M292.11,250.45q0,4.35-4.37,4.35t-4.35-4.37,4.37-4.35,4.35,4.37Z"/>
    <path class="cls-1" d="M309.55,233.08q0,4.28-4.16,4.28-4.56,0-4.56-4.43t4.16-4.28q4.56,0,4.56,4.43Z"/>
    <path class="cls-1" d="M231.08,311.58q0,4.25-4.2,4.25-4.52,0-4.52-4.47,0-4.25,4.2-4.25,4.52,0,4.52,4.47Z"/>
    <path class="cls-1" d="M283.39,232.82q0-4.18,4.27-4.18,4.45,0,4.45,4.54,0,4.18-4.27,4.18-4.45,0-4.45-4.54Z"/>
    <path class="cls-1" d="M231.08,294.14q0,4.25-4.2,4.25-4.52,0-4.52-4.47,0-4.25,4.2-4.25,4.52,0,4.52,4.47Z"/>
    <path class="cls-1" d="M204.93,372.53q0,4.32-4.4,4.32t-4.32-4.4,4.4-4.32,4.32,4.4Z"/>
  </g>
</svg>