<?xml version="1.0" encoding="UTF-8"?>
<svg id="Layer_1" xmlns="http://www.w3.org/2000/svg" viewBox="0 0 1080 1080">
  <defs>
    <style>
      .cls-1, .cls-2 {
        fill: #1f3060;
      }

      .cls-3 {
        fill: #fefefe;
      }

      .cls-2 {
        opacity: .18;
      }
    </style>
  </defs>
  <circle class="cls-2" cx="303.5" cy="191.67" r="363.31"/>
  <circle class="cls-2" cx="129.86" cy="340.71" r="363.31"/>
  <g>
    <g>
      <path class="cls-1" d="M284.34,332.79c-3.77-.94-7.59-1.79-11.43-2.36-2.07-.31-3.28-1.2-4.37-2.9-10.3-16.1-20.68-32.15-31.01-48.24-2.12-3.31-4.82-5.86-8.46-7.4-3.23-1.37-6.64-1.15-10.03-1.15-6.22,0-6.16,0-6.18-6.18,0-1.72.38-2.4,2.23-2.31,2.87.16,5.77.01,8.65.05,1.06.02,1.63-.08,1.73-1.44.98-13.5-8.32-23.63-21.87-23.7-4.75-.02-9.51-.14-14.25.05-2.38.1-3.53-.62-4.41-2.89-5.12-13.18-11.76-25.47-21.67-35.78-1.45-1.5-1.28-5.15.2-6.69,2.68-2.79,4.67-5.97,5.97-9.62,2-5.59,1.4-11.38,1.3-17.1-.2-12.49-10.16-23.28-22.28-24.39-13.43-1.23-25.11,7.29-27.64,20.14-.89,4.54-.41,9.12-.45,13.68-.03,5.9,1.73,11.39,5.84,15.53,3.89,3.92,3.03,8.6,2.01,12.5-1.13,4.29-4.46,7.99-6.99,12.21-4.27-10.41-8.34-20.42-12.47-30.41-.78-1.9-1.18-3.77-1.15-5.87.07-6.79-3.05-11.9-9.03-15.02-6.01-3.14-11.93-2.55-17.53,1.25-3.78,2.55-5.58,6.4-6.99,10.51v6.1c1.48,4.82,3.97,8.9,8.48,11.51.74.43.87,1.23,1.15,1.91,16.08,38.75,32.14,77.51,48.23,116.25.49,1.18.5,2.15.02,3.33-3.91,9.62-7.77,19.26-11.57,28.93-.61,1.56-1.23,1.96-2.97,1.47-4.29-1.2-8.44-3.04-13.09-2.78-6.81.38-12.48,5.37-13.37,12.06-.85,6.45,3.14,12.76,9.45,14.81,2.17.71,4.39,1.25,6.59,1.87,32.97,9.33,66.56,15,100.78,16.86,21.45,1.17,42.93.48,64.39.6,3.09.02,5.78-1.22,8.05-3.29,3.88-3.53,5.13-8.84,3.3-13.68-1.94-5.11-6.39-8.18-12.24-8.23-8.57-.07-17.14,0-25.72-.03-10.26-.02-20.53-.2-30.77-.98-1.29-.1-1.94-.31-1.93-1.85.06-13.8.06-27.61,0-41.41,0-1.48.47-1.85,1.88-1.82,4.07.08,8.15.12,12.22-.01,1.77-.06,2.69.58,3.59,2.06,6.28,10.34,12.69,20.59,18.99,30.9,1.81,2.98,4.25,4.8,7.81,4.8,8.14.02,16.29.07,24.43-.02,5.57-.07,10.14-4.23,10.79-9.58.71-5.81-2.6-10.86-8.25-12.27ZM203.57,245.49c6.14.02,10.67,3.04,12.51,8.44-19.37,0-38.54-.01-57.71.03-1.22,0-1.81-.42-2.26-1.49-3.29-7.77-6.7-15.49-9.92-23.3-1.94-4.69.83-9.02,5.37-8.72,2.72.18,4.22,1.84,5.04,4.31,2.06,6.25,4.2,12.48,6.19,18.75.5,1.54,1.21,2.04,2.86,2.03,12.63-.08,25.27-.07,37.91-.03ZM196.03,265.2c0-2.23.43-3.06,2.87-2.97,5.52.2,5.53.05,5.53,5.55v44.2c0,15.59-.03,31.17.03,46.75,0,1.85-.16,2.83-2.4,2.24-1.85-.49-4.43.44-5.59-.93-1.21-1.44-.37-3.91-.37-5.92-.03-29.64,0-59.28-.07-88.92ZM128.95,176.07c-.42-4.05-.43-8.13,0-12.17.93-8.66,8.51-15.22,17.06-14.9,9.01.34,15.96,7.27,16.27,16.25.05,1.61,0,3.22,0,4.83-.11,2.78.24,5.57-.5,8.33-2.13,7.78-9.48,13.14-17.29,12.51-8.22-.66-14.7-6.79-15.55-14.85ZM126.18,222.93c2.66-4.31,5.18-8.73,7.91-12.99,2.04-3.19,3.82-6.36,3.12-10.35-.15-.84-.19-1.77,1.26-1.31,5.1,1.6,10.19,1.26,15.55-.31-.84,3.12,1.38,4.58,3.03,6.31,8.99,9.38,15.16,20.45,19.85,32.87-2.21,0-4.27-.01-6.32,0-1.22,0-1.23-.99-1.48-1.74-1.64-4.8-3.14-9.64-4.89-14.39-2.19-5.95-7.94-9.56-14.12-9.09-6.13.46-11.36,4.97-12.63,11.1-.66,3.2-.41,6.39.9,9.45,4.05,9.38,8.12,18.75,12.06,28.17.64,1.53,1.56,1.66,2.91,1.66,10.69-.03,21.38.02,32.08-.06,1.76-.01,2.28.42,2.26,2.23-.1,8.38-.1,16.77,0,25.15.02,1.7-.5,2.08-2.11,2.06-10.36-.07-20.71-.06-31.06,0-1.38,0-2.04-.34-2.59-1.68-8.63-21.29-17.31-42.55-26.03-63.79-.52-1.28-.37-2.19.31-3.29ZM82.58,178.36c0-4.73,3.64-8.33,8.38-8.31,4.73.03,8.33,3.7,8.27,8.44-.05,4.66-3.87,8.34-8.52,8.23-4.58-.12-8.14-3.76-8.12-8.35ZM93.9,197.39c-.71-1.7-.97-2.59,1.37-2.93,2.61-.39,4.78-2.01,7.06-3.63,4.56,11.17,9.05,22.17,13.53,33.17,10.05,24.61,20.1,49.22,30.09,73.85.69,1.7,1.5,2.39,3.47,2.37,11.96-.12,23.92-.01,35.88-.1,1.87-.01,2.42.39,2.39,2.34-.12,5.98-.02,5.98-6.06,5.98-13.15,0-26.3-.03-39.45.05-1.73.01-2.43-.53-3.08-2.1-15.01-36.35-30.08-72.68-45.19-108.99ZM187.63,338.19c0,6.35-.05,12.7.03,19.05.02,1.62-.29,2.19-2.06,1.94-11.83-1.69-23.59-3.7-35.29-6.09-1.67-.34-2.14-.79-1.47-2.6,3.95-10.51,7.77-21.07,11.55-31.64.5-1.39,1.08-1.99,2.67-1.97,7.55.1,15.11.09,22.65,0,1.6-.01,1.97.46,1.95,2-.09,6.43-.03,12.87-.03,19.3ZM129.88,342.2c3.11-7.74,6.27-15.47,9.26-23.25.64-1.65,1.44-2.13,3.12-2.06,3.19.14,6.39.04,9.85.04-3.42,9.39-6.69,18.5-10.05,27.57-.75,2.02-.8,5-2.57,5.77-1.56.67-4-.65-6.04-1.15q-5.79-1.41-3.56-6.91ZM268.26,371.44c.85,0,1.7,0,2.55,0,3.21.03,4.98,1.48,5.01,4.11.03,2.67-1.67,4.17-4.9,4.18-9.33.02-18.66,0-27.99,0h-5.09c-24.98.36-49.81-1.49-74.49-5.28-20.1-3.09-39.86-7.75-59.39-13.34-3.42-.98-4.97-3.24-4.47-6.33.43-2.72,2.61-4.22,5.97-4.3,2.19-.05,4.15.75,6.16,1.36,24.85,7.5,50.15,12.76,75.89,16.09,26.83,3.48,53.77,3.69,80.75,3.5ZM280.79,346.18c-3.64-.06-7.29-.01-10.94-.01s-6.96-.1-10.43.04c-1.66.07-2.56-.5-3.42-1.9-10.32-16.86-20.74-33.66-31.05-50.53-.94-1.55-1.87-2.32-3.76-2.16-2.28.19-4.58,0-6.87.07-1.09.03-1.47-.33-1.45-1.44.05-3.21.06-6.43,0-9.64-.03-1.26.5-1.58,1.66-1.55,2.71.06,5.43-.03,8.14.05,3.4.11,5.83,1.78,7.67,4.65,11.04,17.21,22.14,34.38,33.16,51.61,1.01,1.56,2.14,2.32,3.98,2.64,4.67.79,9.28,1.87,13.93,2.77,1.7.33,2.98,1.12,2.84,2.94-.16,1.98-1.63,2.52-3.48,2.49Z"/>
      <path class="cls-1" d="M334.79,270.81c-29.78-.02-59.56-.07-89.33.01-2.62,0-3.43-.6-3.32-3.28.23-5.29.07-5.44,5.31-5.24,2.56.1,3.47-.49,3.34-3.24-.25-5.13-.07-5.14,5.01-5.14q3.3,0,3.3,3.39,0,4.93,5.09,4.93,3.34,0,3.34-3.34c0-3.81.09-7.62-.04-11.43-.06-1.73.55-2.07,2.15-2.06,6.28,0,6.28-.05,6.28,6.32,0,2.88.06,5.76-.03,8.64-.04,1.38.31,1.88,1.82,1.92,6.63.16,6.63.21,6.63-6.44,0-6.94.04-13.89-.03-20.83-.02-1.56.27-2.2,2.05-2.2,6.39,0,6.39-.08,6.39,6.28,0,7.03.05,14.06-.04,21.08-.02,1.69.49,2.11,2.15,2.11,6.3,0,6.3.06,6.3-6.25,0-11.18.04-22.35-.04-33.53-.01-1.81.51-2.22,2.26-2.21,6.22.05,6.22-.02,6.22,6.16,0,11.09.04,22.19-.04,33.28-.01,1.86.31,2.62,2.43,2.57,5.99-.13,5.99-.02,5.99-6.06,0-13.97.04-27.94-.05-41.91-.01-1.98.48-2.53,2.49-2.49,6.01.13,6.01.03,6.01,6.1,0,13.89.07,27.77-.07,41.66-.02,2.35.7,2.9,2.83,2.68,1.85-.19,3.73-.08,5.59-.11v8.64Z"/>
      <path class="cls-1" d="M334.05,159.15c-2.46-9.09-7.34-16.64-14.69-22.54-6.34-5.07-13.54-8.12-21.73-8.61h-10.7c-.3.74-1,.48-1.54.58-22.86,4.57-37.7,25.25-34.21,47.69,3.02,19.41,19.64,34.57,38.47,35.62,21.72,1.22,39.2-13.08,43.95-31.82.4-1.6.36-3.31,1.19-4.81v-10.17c-.51-1.95-.22-4.01-.75-5.95ZM292.79,203.53c-18.49.06-33.69-15.09-33.67-33.57.03-18.46,14.96-33.4,33.44-33.48,18.69-.07,33.69,14.77,33.74,33.38.05,18.6-14.9,33.61-33.51,33.68Z"/>
      <path class="cls-3" d="M224,308.43c-3.46,0-6.42-.06-9.39.03-1.29.04-1.89-.3-1.73-1.67.09-.75.02-1.52.02-2.28,0-4.69.41-5.02,5.14-4.36.66.09,1.08.32,1.41.87,1.43,2.36,2.88,4.71,4.54,7.42Z"/>
    </g>
    <g>
      <path class="cls-1" d="M280.17,156.53c9.72,0,19.43,0,29.15,0,3.86,0,3.87-6,0-6-9.72,0-19.43,0-29.15,0-3.86,0-3.87,6,0,6h0Z"/>
      <path class="cls-1" d="M293.65,156.54c.59.12.84.19,1.06.31.18.1.36.2.53.32.76.51-.14-.15.24.2.74.7,1.01,1.07,1.46,2.1-.14-.33.09.25.12.35.07.21.13.42.19.63.12.45.22,1.11.22,1.16.07,1.08,0,1.88-.26,2.87-1.08,4.1-5.02,7.22-9.33,6.1-3.08-.8-4.75,2.79-2.92,5.01,2.69,3.26,5.37,6.52,8.06,9.78,2.49,3.02,4.86,6.15,8.18,8.32,1.36.89,3.32.27,4.1-1.08.85-1.46.28-3.22-1.08-4.1-2.94-1.92-5.07-5.08-7.27-7.76-2.58-3.13-5.17-6.27-7.75-9.4l-2.92,5.01c7.46,1.93,14.8-3,16.71-10.29,1.57-5.99-1.03-13.94-7.75-15.34-1.59-.33-3.24.46-3.69,2.1-.41,1.49.5,3.36,2.1,3.69h0Z"/>
      <path class="cls-1" d="M286.92,166.25h22.41c3.86,0,3.87-6,0-6h-22.41c-3.86,0-3.87,6,0,6h0Z"/>
    </g>
  </g>
</svg>