<?xml version="1.0" encoding="UTF-8"?>
<svg id="Layer_1" xmlns="http://www.w3.org/2000/svg" viewBox="0 0 1080 1080">
  <defs>
    <style>
      .cls-1, .cls-2 {
        fill: #1f3060;
      }

      .cls-3 {
        fill: #fff;
      }

      .cls-4 {
        fill: none;
        stroke: #1f3060;
        stroke-miterlimit: 10;
        stroke-width: 6px;
      }

      .cls-2 {
        opacity: .18;
      }
    </style>
  </defs>
  <circle class="cls-2" cx="303.5" cy="184.67" r="363.31"/>
  <circle class="cls-2" cx="129.86" cy="333.71" r="363.31"/>
  <g>
    <g>
      <path class="cls-1" d="M159.17,315.79c-.48-7.83-.83-15.65-.91-23.5-.04-4.26,1.47-6.67,5.01-7.9,4.11-1.44,8.94-.36,11.15,2.49,1.1,1.41,1.42,3.04,1.41,4.78-.07,10.45-.74,20.89-1.13,31.33-.21,5.48-.42,10.96-.56,16.45-.1,3.97-1.42,5.68-5.3,6.5-2.04.43-4.05.21-5.94-.63-2.06-.92-2.92-2.56-2.97-4.84-.2-8.23-.5-16.45-.77-24.68Z"/>
      <path class="cls-1" d="M176.45,363.91c-.05,4.97-4.33,9.26-9.26,9.27-5.14,0-9.29-4.18-9.28-9.37,0-5.22,4.11-9.36,9.29-9.35,5.03,0,9.29,4.37,9.25,9.46Z"/>
      <path class="cls-3" d="M159.17,315.79c-.48-7.83-.83-15.65-.91-23.5-.04-4.26,1.47-6.67,5.01-7.9,4.11-1.44,8.94-.36,11.15,2.49,1.1,1.41,1.42,3.04,1.41,4.78-.07,10.45-.74,20.89-1.13,31.33-.21,5.48-.42,10.96-.56,16.45-.1,3.97-1.42,5.68-5.3,6.5-2.04.43-4.05.21-5.94-.63-2.06-.92-2.92-2.56-2.97-4.84-.2-8.23-.5-16.45-.77-24.68Z"/>
      <path class="cls-3" d="M176.45,363.91c-.05,4.97-4.33,9.26-9.26,9.27-5.14,0-9.29-4.18-9.28-9.37,0-5.22,4.11-9.36,9.29-9.35,5.03,0,9.29,4.37,9.25,9.46Z"/>
      <path class="cls-1" d="M175.83,291.66c-.07,10.45-.74,20.89-1.13,31.33-.21,5.48-.42,10.96-.56,16.45-.1,3.97-1.42,5.68-5.3,6.5-2.04.43-4.05.21-5.94-.63-2.06-.92-2.92-2.56-2.97-4.84-.2-8.23-.5-16.45-.77-24.68-.48-7.83-.83-15.65-.91-23.5-.04-4.26,1.47-6.67,5.01-7.9,4.11-1.44,8.94-.36,11.15,2.49,1.1,1.41,1.42,3.04,1.41,4.78Z"/>
      <path class="cls-1" d="M176.45,363.91c-.05,4.97-4.33,9.26-9.26,9.27-5.14,0-9.29-4.18-9.28-9.37,0-5.22,4.11-9.36,9.29-9.35,5.03,0,9.29,4.37,9.25,9.46Z"/>
    </g>
    <g>
      <path class="cls-1" d="M322.16,172.2c-8.77-27.12-35.64-43.01-63.77-38.62-14.59,2.27-26.68,9.23-36.23,20.5-5.05,5.96-8.71,12.71-11.05,20.17-.54,1.73.61,3.08,2.28,2.67.44-.11.84-.37,1.26-.56,9.14-4.23,18.2-4.12,27.07.71,1.59.87,2.8.87,4.3,0,5.11-2.99,10.66-4.62,16.53-5.26.71-.08.97.11.95.86-.07,1.85-.09,3.7-.11,5.55-.13,15.89-.25,31.78-.39,47.67-.02,2.64-1.77,4.74-3.99,4.87-2.61.15-4.51-1.55-4.88-4.36-.18-1.42-.96-2.17-2.18-2.1-1.2.06-1.89.93-1.86,2.36.1,4.51,3.81,8.12,8.4,8.18,4.53.05,8.23-3.45,8.3-8.02.14-8.83.19-17.66.28-26.49h-.3c.12-2.87.31-5.72.35-8.57.1-6.22.14-12.44.17-18.66,0-.84.15-1.16,1.1-1.08,5.93.5,11.59,1.92,16.8,4.84,1.56.87,2.76.83,4.28-.1,9.53-5.84,19.43-6.6,29.66-1.91.91.41,1.73.62,2.56-.11.82-.72.79-1.56.47-2.52ZM242.01,172.49c-8.36-3.72-16.74-4.2-25.55-1.28,3.69-8.76,9.05-15.96,16.21-21.82,7.18-5.88,15.33-9.69,24.5-11.37-4.92,4.35-8.85,9.42-11.52,15.42-2.67,6-3.8,12.31-3.65,19.05ZM285.75,172.04c-13.42-6.07-26.64-5.79-39.85.56-.22-7.52,1.4-14.47,5.04-20.95,3.23-5.76,7.74-10.31,13.25-13.91.69-.45,1.18-.49,1.89-.03,11.16,7.13,17.89,17.11,19.56,30.35.16,1.28.36,2.58.11,3.99ZM290.16,171.7c-.27-6.81-1.74-13.19-4.72-19.2-2.98-6.02-7.2-11-12.46-15.16,4.3-1.04,18.88,4.38,26.39,9.79,7.62,5.5,15.97,15.7,17.92,22-9.36-2.64-18.38-1.98-27.13,2.58Z"/>
      <path class="cls-1" d="M263.65,123.73c0-1.09-.03-2.18,0-3.27.04-1.23.79-2.03,1.9-2.09,1.12-.06,2.09.61,2.22,1.78.28,2.59.1,5.19-.1,7.78-.08,1.02-.93,1.56-1.99,1.54-1.02-.02-1.9-.95-1.96-2.1-.06-1.21-.03-2.43-.04-3.65,0,0-.02,0-.03,0Z"/>
    </g>
    <g>
      <path class="cls-1" d="M360.35,114.56c-.27-2.15-1.36-3.13-3.49-3.22-13.3-.56-25.95-4.03-38.21-8.97-20.16-8.13-38.49-19.4-55.51-32.87-2.51-1.99-3.17-2-5.64-.02-10.42,8.34-21.47,15.75-33.16,22.17-19.07,10.46-38.9,18.64-61.02,19.71-1.95.09-2.91,1.26-3.1,3.12-.31,3.01-.72,6.01-.88,9.02-1.16,21.27.62,42.26,6.43,62.81,12.73,45.07,40.78,76.34,84.64,93.06,12.31,4.69,7.52,4.7,20.37-.21,33.11-12.65,58.29-34.34,74.03-66.4,11.89-24.23,16.51-50.09,16.8-76.88.03-7.14-.37-14.25-1.26-21.34ZM338.17,213.61c-14.55,28-37.09,47.14-66.05,59.06-1.07.44-2.14.87-3.23,1.29q-8.67,3.34-17.28-.03c-42.17-16.39-68.9-46.64-80.73-90.18-5.75-21.14-7.22-42.68-5.59-64.48.14-1.78.69-2.4,2.55-2.58,21.9-2.09,41.72-10.29,60.69-20.91,10.49-5.86,20.5-12.46,29.9-19.94,1.59-1.27,2.42-.98,3.83.1,17.16,13.25,35.6,24.35,55.86,32.25,11.36,4.44,23.07,7.51,35.25,8.58,1.22.11,1.66.37,1.78,1.69.52,5.79.72,11.59.83,17.21-.33,27.4-5.17,53.58-17.82,77.93ZM346.51,122.04c-12.18-1.7-23.82-5.29-35.12-10.04-16.84-7.07-32.41-16.37-47.22-27.01-3.87-2.79-3.84-2.81-7.61-.07-6.39,4.64-12.98,8.98-19.77,13.01-19.62,11.66-40.16,20.9-63,24.15-2,.29-2.87,1.47-2.95,3.51-.76,18.29.59,36.37,5.17,54.14,10.54,40.92,34.54,70.51,73.84,86.9,12.74,5.32,8.03,5.31,20.83.04,26.76-11.02,47.6-28.9,61.4-54.54,12.41-23.06,17.35-47.97,17.86-73.93,0-4.27-.07-8.53-.36-12.79-.14-2.06-1.09-3.1-3.08-3.37ZM344.11,139.42c-.56,25.89-5.68,50.67-18.8,73.34-14.66,25.33-36.62,41.7-63.81,51.59-1.16.42-2.06.07-3.08-.3-41.41-15.21-66.84-44.59-77.33-87.21-3.85-15.68-5.2-31.61-4.72-47.71.04-1.14.18-1.79,1.55-2.02,19.46-3.23,37.37-10.69,54.52-20.16,9.08-5.02,17.85-10.55,26.24-16.67,1.34-.98,2.14-.79,3.39.09,18.32,12.97,37.62,24.1,59.02,31.29,6.97,2.35,14.06,4.23,21.32,5.41,1.26.2,1.74.62,1.72,1.88-.05,3.49-.02,6.98-.02,10.46Z"/>
      <path class="cls-3" d="M349.58,125.41c-.14-2.06-1.09-3.1-3.08-3.37-12.18-1.7-23.82-5.29-35.12-10.04-16.84-7.07-32.41-16.37-47.22-27.01-3.87-2.79-3.84-2.81-7.61-.07-6.39,4.64-12.98,8.98-19.77,13.01-19.62,11.66-40.16,20.9-63,24.15-2,.29-2.87,1.47-2.95,3.51-.76,18.29.59,36.37,5.17,54.14,10.54,40.92,34.54,70.51,73.84,86.9,12.74,5.32,8.03,5.31,20.83.04,26.76-11.02,47.6-28.9,61.4-54.54,12.41-23.06,17.35-47.97,17.86-73.93,0-4.27-.07-8.53-.36-12.79ZM344.11,139.42c-.56,25.89-5.68,50.67-18.8,73.34-14.66,25.33-36.62,41.7-63.81,51.59-1.16.42-2.06.07-3.08-.3-41.41-15.21-66.84-44.59-77.33-87.21-3.85-15.68-5.2-31.61-4.72-47.71.04-1.14.18-1.79,1.55-2.02,19.46-3.23,37.37-10.69,54.52-20.16,9.08-5.02,17.85-10.55,26.24-16.67,1.34-.98,2.14-.79,3.39.09,18.32,12.97,37.62,24.1,59.02,31.29,6.97,2.35,14.06,4.23,21.32,5.41,1.26.2,1.74.62,1.72,1.88-.05,3.49-.02,6.98-.02,10.46Z"/>
      <path class="cls-1" d="M349.58,125.41c-.14-2.06-1.09-3.1-3.08-3.37-12.18-1.7-23.82-5.29-35.12-10.04-16.84-7.07-32.41-16.37-47.22-27.01-3.87-2.79-3.84-2.81-7.61-.07-6.39,4.64-12.98,8.98-19.77,13.01-19.62,11.66-40.16,20.9-63,24.15-2,.29-2.87,1.47-2.95,3.51-.76,18.29.59,36.37,5.17,54.14,10.54,40.92,34.54,70.51,73.84,86.9,12.74,5.32,8.03,5.31,20.83.04,26.76-11.02,47.6-28.9,61.4-54.54,12.41-23.06,17.35-47.97,17.86-73.93,0-4.27-.07-8.53-.36-12.79ZM344.11,139.42c-.56,25.89-5.68,50.67-18.8,73.34-14.66,25.33-36.62,41.7-63.81,51.59-1.16.42-2.06.07-3.08-.3-41.41-15.21-66.84-44.59-77.33-87.21-3.85-15.68-5.2-31.61-4.72-47.71.04-1.14.18-1.79,1.55-2.02,19.46-3.23,37.37-10.69,54.52-20.16,9.08-5.02,17.85-10.55,26.24-16.67,1.34-.98,2.14-.79,3.39.09,18.32,12.97,37.62,24.1,59.02,31.29,6.97,2.35,14.06,4.23,21.32,5.41,1.26.2,1.74.62,1.72,1.88-.05,3.49-.02,6.98-.02,10.46Z"/>
    </g>
    <circle class="cls-4" cx="165.1" cy="328.42" r="59.67"/>
    <path class="cls-4" d="M188.23,254.85l1.84,3.22,3.48-1.28c19.82-7.31,40.08,9.69,36.33,30.48l-.66,3.65,3.49,1.26c19.88,7.14,24.47,33.19,8.23,46.7l-2.85,2.38,1.87,3.21c10.64,18.25-2.58,41.16-23.71,41.07l-3.71-.02-.63,3.66c-3.58,20.82-28.43,29.87-44.56,16.22l-2.83-2.4-2.83,2.4c-16.13,13.65-40.98,4.6-44.56-16.22l-.63-3.66-3.71.02c-21.13.09-34.35-22.82-23.71-41.07l1.87-3.21-2.85-2.38c-16.24-13.51-11.65-39.56,8.23-46.7l3.49-1.26-.66-3.65c-3.75-20.79,16.51-37.79,36.33-30.48l3.48,1.28,1.84-3.22c10.49-18.34,36.93-18.34,47.42,0Z"/>
  </g>
</svg>