<?xml version="1.0" encoding="UTF-8"?>
<svg id="Layer_1" data-name="Layer 1" xmlns="http://www.w3.org/2000/svg" viewBox="0 0 1080 1080">
  <defs>
    <style>
      .cls-1, .cls-2 {
        fill: #1f2f60;
      }

      .cls-3 {
        fill: #fff;
      }

      .cls-2 {
        opacity: .24;
      }
    </style>
  </defs>
  <circle class="cls-2" cx="317.44" cy="179.95" r="363.31"/>
  <circle class="cls-2" cx="143.8" cy="328.99" r="363.31"/>
  <g>
    <path class="cls-1" d="M177.86,151.88v8.68h8.7v34.74h8.7v-34.74h8.7v-8.68h-26.11ZM236.85,157.88c-4.19-6.48-12.81-7.9-19-3.27-1.85,1.38-5.18,5.62-5.18,7.85v32.84h8.7v-8.69h8.7v8.69h8.7v-32.84c0-.25-1.6-4.08-1.93-4.58ZM230.08,177.94h-8.7v-14.39c0-3.59,8.7-4.25,8.7.54v13.84ZM273.34,162.21c.7-2.34.27-7.61.25-10.33-2.89.02-5.81-.01-8.7,0,.65,5.78-.28,8.46-3.65,12.89-.22.3.03,1-.96.69-.36-.11-3.85-5.83-3.97-6.36-.49-2.17.11-4.95-.12-7.21h-8.7v10.04c0,1.02,6.96,9.46,7.51,11.49.17,1.77-7.51,10.68-7.51,11.86v10.04h8.7c-.65-5.77.28-8.46,3.65-12.89.22-.29-.03-1,.96-.69.36.12,3.85,5.83,3.97,6.36.49,2.18-.11,4.95.12,7.22h8.7v-10.04c0-1.2-7.26-9.49-7.51-11.86.2-2.01,6.49-8.63,7.26-11.19ZM273.34,162.21c.7-2.34.27-7.61.25-10.33-2.89.02-5.81-.01-8.7,0,.65,5.78-.28,8.46-3.65,12.89-.22.3.03,1-.96.69-.36-.11-3.85-5.83-3.97-6.36-.49-2.17.11-4.95-.12-7.21h-8.7v10.04c0,1.02,6.96,9.46,7.51,11.49.17,1.77-7.51,10.68-7.51,11.86v10.04h8.7c-.65-5.77.28-8.46,3.65-12.89.22-.29-.03-1,.96-.69.36.12,3.85,5.83,3.97,6.36.49,2.18-.11,4.95.12,7.22h8.7v-10.04c0-1.2-7.26-9.49-7.51-11.86.2-2.01,6.49-8.63,7.26-11.19ZM236.85,157.88c-4.19-6.48-12.81-7.9-19-3.27-1.85,1.38-5.18,5.62-5.18,7.85v32.84h8.7v-8.69h8.7v8.69h8.7v-32.84c0-.25-1.6-4.08-1.93-4.58ZM230.08,177.94h-8.7v-14.39c0-3.59,8.7-4.25,8.7.54v13.84ZM177.86,151.88v8.68h8.7v34.74h8.7v-34.74h8.7v-8.68h-26.11ZM177.86,151.88v8.68h8.7v34.74h8.7v-34.74h8.7v-8.68h-26.11ZM236.85,157.88c-4.19-6.48-12.81-7.9-19-3.27-1.85,1.38-5.18,5.62-5.18,7.85v32.84h8.7v-8.69h8.7v8.69h8.7v-32.84c0-.25-1.6-4.08-1.93-4.58ZM230.08,177.94h-8.7v-14.39c0-3.59,8.7-4.25,8.7.54v13.84ZM273.34,162.21c.7-2.34.27-7.61.25-10.33-2.89.02-5.81-.01-8.7,0,.65,5.78-.28,8.46-3.65,12.89-.22.3.03,1-.96.69-.36-.11-3.85-5.83-3.97-6.36-.49-2.17.11-4.95-.12-7.21h-8.7v10.04c0,1.02,6.96,9.46,7.51,11.49.17,1.77-7.51,10.68-7.51,11.86v10.04h8.7c-.65-5.77.28-8.46,3.65-12.89.22-.29-.03-1,.96-.69.36.12,3.85,5.83,3.97,6.36.49,2.18-.11,4.95.12,7.22h8.7v-10.04c0-1.2-7.26-9.49-7.51-11.86.2-2.01,6.49-8.63,7.26-11.19ZM273.34,162.21c.7-2.34.27-7.61.25-10.33-2.89.02-5.81-.01-8.7,0,.65,5.78-.28,8.46-3.65,12.89-.22.3.03,1-.96.69-.36-.11-3.85-5.83-3.97-6.36-.49-2.17.11-4.95-.12-7.21h-8.7v10.04c0,1.02,6.96,9.46,7.51,11.49.17,1.77-7.51,10.68-7.51,11.86v10.04h8.7c-.65-5.77.28-8.46,3.65-12.89.22-.29-.03-1,.96-.69.36.12,3.85,5.83,3.97,6.36.49,2.18-.11,4.95.12,7.22h8.7v-10.04c0-1.2-7.26-9.49-7.51-11.86.2-2.01,6.49-8.63,7.26-11.19ZM236.85,157.88c-4.19-6.48-12.81-7.9-19-3.27-1.85,1.38-5.18,5.62-5.18,7.85v32.84h8.7v-8.69h8.7v8.69h8.7v-32.84c0-.25-1.6-4.08-1.93-4.58ZM230.08,177.94h-8.7v-14.39c0-3.59,8.7-4.25,8.7.54v13.84ZM177.86,151.88v8.68h8.7v34.74h8.7v-34.74h8.7v-8.68h-26.11ZM158.14,295.32c-16.08,2.55-13.12,28.04,4.18,25.87,16.61-2.07,13.74-28.71-4.18-25.87ZM161.13,312.46c-6.06.71-6.64-7.45-1.9-8.48,6.45-1.4,7.46,7.82,1.9,8.48ZM164.81,238.73v8.69h8.7v-8.69h-8.7ZM192.95,317.03c-16.15,2.54-13.02,28.04,4.18,25.87,16.64-2.09,13.73-28.69-4.18-25.87ZM195.93,334.17c-6.06.71-6.64-7.45-1.9-8.48,6.45-1.41,7.46,7.82,1.9,8.48ZM202.64,293.01c-.36-.57-5.71-4.47-6.45-4.28l-43.33,55.63c-.24,1.04,5.9,4.5,6.78,5.64l42.83-55.51c.26-.55.57-.85.17-1.48ZM177.86,151.88v8.68h8.7v34.74h8.7v-34.74h8.7v-8.68h-26.11ZM164.81,273.47v8.69h65.27v-8.69h-65.27ZM236.85,157.88c-4.19-6.48-12.81-7.9-19-3.27-1.85,1.38-5.18,5.62-5.18,7.85v32.84h8.7v-8.69h8.7v8.69h8.7v-32.84c0-.25-1.6-4.08-1.93-4.58ZM230.08,177.94h-8.7v-14.39c0-3.59,8.7-4.25,8.7.54v13.84ZM164.81,221.36v8.69h82.67v-8.69h-82.67ZM182.21,238.73v8.69h65.27v-8.69h-65.27ZM164.81,256.1v8.68h82.67v-8.68h-82.67ZM238.78,273.47v8.69h8.7v-8.69h-8.7ZM273.34,162.21c.7-2.34.27-7.61.25-10.33-2.89.02-5.81-.01-8.7,0,.65,5.78-.28,8.46-3.65,12.89-.22.3.03,1-.96.69-.36-.11-3.85-5.83-3.97-6.36-.49-2.17.11-4.95-.12-7.21h-8.7v10.04c0,1.02,6.96,9.46,7.51,11.49.17,1.77-7.51,10.68-7.51,11.86v10.04h8.7c-.65-5.77.28-8.46,3.65-12.89.22-.29-.03-1,.96-.69.36.12,3.85,5.83,3.97,6.36.49,2.18-.11,4.95.12,7.22h8.7v-10.04c0-1.2-7.26-9.49-7.51-11.86.2-2.01,6.49-8.63,7.26-11.19ZM238.78,282.16h8.7v-8.69h-8.7v8.69ZM164.81,264.79h82.67v-8.68h-82.67v8.68ZM182.21,247.42h65.27v-8.69h-65.27v8.69ZM164.81,221.36v8.69h82.67v-8.69h-82.67ZM164.81,282.16h65.27v-8.69h-65.27v8.69ZM202.64,293.01c-.36-.57-5.71-4.47-6.45-4.28l-43.33,55.63c-.24,1.04,5.9,4.5,6.78,5.64l42.83-55.51c.26-.55.57-.85.17-1.48ZM192.95,317.03c-16.15,2.54-13.02,28.04,4.18,25.87,16.64-2.09,13.73-28.69-4.18-25.87ZM195.93,334.17c-6.06.71-6.64-7.45-1.9-8.48,6.45-1.41,7.46,7.82,1.9,8.48ZM173.51,238.73h-8.7v8.69h8.7v-8.69ZM162.31,321.19c16.61-2.07,13.74-28.71-4.18-25.87-16.08,2.55-13.12,28.04,4.18,25.87ZM159.23,303.97c6.45-1.4,7.46,7.82,1.9,8.48-6.06.71-6.64-7.45-1.9-8.48ZM273.34,162.21c.7-2.34.27-7.61.25-10.33-2.89.02-5.81-.01-8.7,0,.65,5.78-.28,8.46-3.65,12.89-.22.3.03,1-.96.69-.36-.11-3.85-5.83-3.97-6.36-.49-2.17.11-4.95-.12-7.21h-8.7v10.04c0,1.02,6.96,9.46,7.51,11.49.17,1.77-7.51,10.68-7.51,11.86v10.04h8.7c-.65-5.77.28-8.46,3.65-12.89.22-.29-.03-1,.96-.69.36.12,3.85,5.83,3.97,6.36.49,2.18-.11,4.95.12,7.22h8.7v-10.04c0-1.2-7.26-9.49-7.51-11.86.2-2.01,6.49-8.63,7.26-11.19ZM217.85,154.61c-1.85,1.38-5.18,5.62-5.18,7.85v32.84h8.7v-8.69h8.7v8.69h8.7v-32.84c0-.25-1.6-4.08-1.93-4.58-4.19-6.48-12.81-7.9-19-3.27ZM230.08,177.94h-8.7v-14.39c0-3.59,8.7-4.25,8.7.54v13.84ZM177.86,160.56h8.7v34.74h8.7v-34.74h8.7v-8.68h-26.11v8.68ZM386.99,312.55c-13.1-15.29-30.29-17.77-49.13-21.26.12-2.36-3-8.91-1.78-10.52.69-.9,3.52-2.4,4.68-3.49,4.78-4.47,8.15-10.37,10.01-16.61,12.21.21,21.6-11.1,17.69-23.02-.59-1.8-2.44-3.84-2.45-5.71-.02-3.31,3-10.61,3.28-15.21.48-7.81-2.19-15.11-9.58-18.66-1.7-.82-4.67-1.23-5.93-2.22-1.14-.88-2.79-3.9-4.05-5.19-6.5-6.63-14.61-10.62-23.89-11.71l-.34-33.59-45.68-45.61h-149.84v269.24h269.77c.44-20.99,1.65-39.62-12.78-56.46ZM338.25,300.93l-2.66,17.6-11.41-6.79c.33-.71,10.43-10.75,11.12-11.15,1.14-.67,2.2-.99,2.96.34ZM296.13,300.6c.41-.57.99-.62,1.65-.55,1.65.19,10.36,10.13,12.26,11.95l-11.41,6.53c.12-2.33-3.02-17.19-2.49-17.93ZM304.68,293.72c-.37-1.56,2.02-6.85,2.1-8.85,6.63,2.26,14.03,2.26,20.65,0,.13,2.07,2.62,7.67,1.93,9.21-.34.78-11.23,11.78-12.06,11.93-1.84-1.53-12.3-10.94-12.62-12.28ZM343.2,253.65c-1.87,20.94-26.19,31.64-42.68,18.18-12.06-9.85-9.4-24.03-9.46-37.91,8.82-1.8,16.98-4.55,24.57-9.41,6.54-4.19,9.6-9.87,18.62-6.43,5.45,2.07,8.48,7.09,8.98,12.76.51,5.92.5,16.89-.03,22.81ZM351.91,251.76v-17.38c11.55.82,11.56,16.56,0,17.38ZM344.03,197.47c1.39,1.57,4.13,6.29,5.4,7.11,1.39.9,4.11.34,6.3,1.31,8.06,3.57,3.94,14.48,2.7,20.91-1.52-.95-6.2-.76-7.09-1.33-.44-.28-1.44-3.9-2.05-5.01-4.44-7.99-13.34-13.08-22.62-12.05-7.1.78-12.22,6.77-18.11,10.15-6.49,3.73-14.76,6.24-22.21,7.16-3.37.41-6.95-.58-10.31,1.1-3.85-9.95-3.64-21.34,7.13-26.54,6.2-3,30.79-12.01,36.93-12.55,9.19-.8,17.88,2.96,23.92,9.75ZM282.29,234.39v17.38c-11.55-.81-11.56-16.56,0-17.38ZM317.1,179.56c-6.09.7-11.65,3.56-17.4,5.43v-33.11h17.4v27.68ZM282.29,114.97l28.28,28.22h-28.28v-28.22ZM290.99,151.88v36.37c-9.76,2.83-18.61,6.33-23.66,15.74h-102.53v-60.8h108.78c.01,2.89-.02,5.79,0,8.69,5.79-.04,11.61.03,17.4,0ZM138.7,360.33V108.45h134.89v26.06h-117.48v78.17h108.78c.09,1.86-.17,3.78.07,5.63.42,3.27,3.72,12.26,3.51,14.18-.07.62-2.15,3.56-2.59,4.78-4.34,12.1,5.14,23.49,17.54,23.41,1.75,5.88,5.03,11.78,9.46,16.06,1.24,1.2,4.45,3.01,5.24,4.03,1.23,1.6-1.9,8.16-1.78,10.52-15.61,3.42-30.04,4.53-42.82,15.08-16.52,13.63-20.68,33.28-19.09,53.96h-95.73ZM391.07,360.33h-26.11v-17.38h-8.7v17.38h-78.32v-17.38h-8.7v17.38h-26.11c.38-5.7-.52-12.02,0-17.64,1.7-18.33,15.98-33.66,33.38-38.34,1.92-.51,8.33-2.1,9.91-2.07.67.01,1.02.22,1.22.88l4.45,29.49,25.24-14.66,24.78,14.66,4.45-29.49c.2-.65.54-.87,1.22-.88,3.16-.04,12.89,2.76,16.09,4.05,13.23,5.37,27.2,22.19,27.2,36.9v17.1ZM264.89,151.87c.65,5.78-.28,8.46-3.65,12.89-.22.3.03,1-.96.69-.36-.11-3.85-5.83-3.97-6.36-.49-2.17.11-4.95-.12-7.21h-8.7v10.04c0,1.02,6.96,9.46,7.51,11.49.17,1.77-7.51,10.68-7.51,11.86v10.04h8.7c-.65-5.77.28-8.46,3.65-12.89.22-.29-.03-1,.96-.69.36.12,3.85,5.83,3.97,6.36.49,2.18-.11,4.95.12,7.22h8.7v-10.04c0-1.2-7.26-9.49-7.51-11.86.2-2.01,6.49-8.63,7.26-11.19.7-2.34.27-7.61.25-10.33-2.89.02-5.81-.01-8.7,0ZM238.78,282.16h8.7v-8.69h-8.7v8.69ZM247.48,256.1h-82.67v8.68h82.67v-8.68ZM182.21,247.42h65.27v-8.69h-65.27v8.69ZM247.48,221.36h-82.67v8.69h82.67v-8.69ZM217.85,154.61c-1.85,1.38-5.18,5.62-5.18,7.85v32.84h8.7v-8.69h8.7v8.69h8.7v-32.84c0-.25-1.6-4.08-1.93-4.58-4.19-6.48-12.81-7.9-19-3.27ZM230.08,177.94h-8.7v-14.39c0-3.59,8.7-4.25,8.7.54v13.84ZM164.81,282.16h65.27v-8.69h-65.27v8.69ZM177.86,160.56h8.7v34.74h8.7v-34.74h8.7v-8.68h-26.11v8.68ZM202.64,293.01c-.36-.57-5.71-4.47-6.45-4.28l-43.33,55.63c-.24,1.04,5.9,4.5,6.78,5.64l42.83-55.51c.26-.55.57-.85.17-1.48ZM192.95,317.03c-16.15,2.54-13.02,28.04,4.18,25.87,16.64-2.09,13.73-28.69-4.18-25.87ZM195.93,334.17c-6.06.71-6.64-7.45-1.9-8.48,6.45-1.41,7.46,7.82,1.9,8.48ZM173.51,238.73h-8.7v8.69h8.7v-8.69ZM162.31,321.19c16.61-2.07,13.74-28.71-4.18-25.87-16.08,2.55-13.12,28.04,4.18,25.87ZM159.23,303.97c6.45-1.4,7.46,7.82,1.9,8.48-6.06.71-6.64-7.45-1.9-8.48ZM177.86,151.88v8.68h8.7v34.74h8.7v-34.74h8.7v-8.68h-26.11ZM236.85,157.88c-4.19-6.48-12.81-7.9-19-3.27-1.85,1.38-5.18,5.62-5.18,7.85v32.84h8.7v-8.69h8.7v8.69h8.7v-32.84c0-.25-1.6-4.08-1.93-4.58ZM230.08,177.94h-8.7v-14.39c0-3.59,8.7-4.25,8.7.54v13.84ZM273.34,162.21c.7-2.34.27-7.61.25-10.33-2.89.02-5.81-.01-8.7,0,.65,5.78-.28,8.46-3.65,12.89-.22.3.03,1-.96.69-.36-.11-3.85-5.83-3.97-6.36-.49-2.17.11-4.95-.12-7.21h-8.7v10.04c0,1.02,6.96,9.46,7.51,11.49.17,1.77-7.51,10.68-7.51,11.86v10.04h8.7c-.65-5.77.28-8.46,3.65-12.89.22-.29-.03-1,.96-.69.36.12,3.85,5.83,3.97,6.36.49,2.18-.11,4.95.12,7.22h8.7v-10.04c0-1.2-7.26-9.49-7.51-11.86.2-2.01,6.49-8.63,7.26-11.19ZM158.14,295.32c-16.08,2.55-13.12,28.04,4.18,25.87,16.61-2.07,13.74-28.71-4.18-25.87ZM161.13,312.46c-6.06.71-6.64-7.45-1.9-8.48,6.45-1.4,7.46,7.82,1.9,8.48ZM164.81,238.73v8.69h8.7v-8.69h-8.7ZM192.95,317.03c-16.15,2.54-13.02,28.04,4.18,25.87,16.64-2.09,13.73-28.69-4.18-25.87ZM195.93,334.17c-6.06.71-6.64-7.45-1.9-8.48,6.45-1.41,7.46,7.82,1.9,8.48ZM202.64,293.01c-.36-.57-5.71-4.47-6.45-4.28l-43.33,55.63c-.24,1.04,5.9,4.5,6.78,5.64l42.83-55.51c.26-.55.57-.85.17-1.48ZM164.81,273.47v8.69h65.27v-8.69h-65.27ZM164.81,221.36v8.69h82.67v-8.69h-82.67ZM182.21,238.73v8.69h65.27v-8.69h-65.27ZM164.81,256.1v8.68h82.67v-8.68h-82.67ZM238.78,273.47v8.69h8.7v-8.69h-8.7ZM273.34,162.21c.7-2.34.27-7.61.25-10.33-2.89.02-5.81-.01-8.7,0,.65,5.78-.28,8.46-3.65,12.89-.22.3.03,1-.96.69-.36-.11-3.85-5.83-3.97-6.36-.49-2.17.11-4.95-.12-7.21h-8.7v10.04c0,1.02,6.96,9.46,7.51,11.49.17,1.77-7.51,10.68-7.51,11.86v10.04h8.7c-.65-5.77.28-8.46,3.65-12.89.22-.29-.03-1,.96-.69.36.12,3.85,5.83,3.97,6.36.49,2.18-.11,4.95.12,7.22h8.7v-10.04c0-1.2-7.26-9.49-7.51-11.86.2-2.01,6.49-8.63,7.26-11.19ZM238.78,273.47v8.69h8.7v-8.69h-8.7ZM164.81,256.1v8.68h82.67v-8.68h-82.67ZM182.21,238.73v8.69h65.27v-8.69h-65.27ZM164.81,221.36v8.69h82.67v-8.69h-82.67ZM236.85,157.88c-4.19-6.48-12.81-7.9-19-3.27-1.85,1.38-5.18,5.62-5.18,7.85v32.84h8.7v-8.69h8.7v8.69h8.7v-32.84c0-.25-1.6-4.08-1.93-4.58ZM230.08,177.94h-8.7v-14.39c0-3.59,8.7-4.25,8.7.54v13.84ZM164.81,273.47v8.69h65.27v-8.69h-65.27ZM177.86,151.88v8.68h8.7v34.74h8.7v-34.74h8.7v-8.68h-26.11ZM202.64,293.01c-.36-.57-5.71-4.47-6.45-4.28l-43.33,55.63c-.24,1.04,5.9,4.5,6.78,5.64l42.83-55.51c.26-.55.57-.85.17-1.48ZM192.95,317.03c-16.15,2.54-13.02,28.04,4.18,25.87,16.64-2.09,13.73-28.69-4.18-25.87ZM195.93,334.17c-6.06.71-6.64-7.45-1.9-8.48,6.45-1.41,7.46,7.82,1.9,8.48ZM164.81,238.73v8.69h8.7v-8.69h-8.7ZM158.14,295.32c-16.08,2.55-13.12,28.04,4.18,25.87,16.61-2.07,13.74-28.71-4.18-25.87ZM161.13,312.46c-6.06.71-6.64-7.45-1.9-8.48,6.45-1.4,7.46,7.82,1.9,8.48ZM177.86,151.88v8.68h8.7v34.74h8.7v-34.74h8.7v-8.68h-26.11ZM236.85,157.88c-4.19-6.48-12.81-7.9-19-3.27-1.85,1.38-5.18,5.62-5.18,7.85v32.84h8.7v-8.69h8.7v8.69h8.7v-32.84c0-.25-1.6-4.08-1.93-4.58ZM230.08,177.94h-8.7v-14.39c0-3.59,8.7-4.25,8.7.54v13.84ZM273.34,162.21c.7-2.34.27-7.61.25-10.33-2.89.02-5.81-.01-8.7,0,.65,5.78-.28,8.46-3.65,12.89-.22.3.03,1-.96.69-.36-.11-3.85-5.83-3.97-6.36-.49-2.17.11-4.95-.12-7.21h-8.7v10.04c0,1.02,6.96,9.46,7.51,11.49.17,1.77-7.51,10.68-7.51,11.86v10.04h8.7c-.65-5.77.28-8.46,3.65-12.89.22-.29-.03-1,.96-.69.36.12,3.85,5.83,3.97,6.36.49,2.18-.11,4.95.12,7.22h8.7v-10.04c0-1.2-7.26-9.49-7.51-11.86.2-2.01,6.49-8.63,7.26-11.19ZM273.34,162.21c.7-2.34.27-7.61.25-10.33-2.89.02-5.81-.01-8.7,0,.65,5.78-.28,8.46-3.65,12.89-.22.3.03,1-.96.69-.36-.11-3.85-5.83-3.97-6.36-.49-2.17.11-4.95-.12-7.21h-8.7v10.04c0,1.02,6.96,9.46,7.51,11.49.17,1.77-7.51,10.68-7.51,11.86v10.04h8.7c-.65-5.77.28-8.46,3.65-12.89.22-.29-.03-1,.96-.69.36.12,3.85,5.83,3.97,6.36.49,2.18-.11,4.95.12,7.22h8.7v-10.04c0-1.2-7.26-9.49-7.51-11.86.2-2.01,6.49-8.63,7.26-11.19ZM236.85,157.88c-4.19-6.48-12.81-7.9-19-3.27-1.85,1.38-5.18,5.62-5.18,7.85v32.84h8.7v-8.69h8.7v8.69h8.7v-32.84c0-.25-1.6-4.08-1.93-4.58ZM230.08,177.94h-8.7v-14.39c0-3.59,8.7-4.25,8.7.54v13.84ZM177.86,151.88v8.68h8.7v34.74h8.7v-34.74h8.7v-8.68h-26.11ZM177.86,151.88v8.68h8.7v34.74h8.7v-34.74h8.7v-8.68h-26.11ZM236.85,157.88c-4.19-6.48-12.81-7.9-19-3.27-1.85,1.38-5.18,5.62-5.18,7.85v32.84h8.7v-8.69h8.7v8.69h8.7v-32.84c0-.25-1.6-4.08-1.93-4.58ZM230.08,177.94h-8.7v-14.39c0-3.59,8.7-4.25,8.7.54v13.84ZM273.34,162.21c.7-2.34.27-7.61.25-10.33-2.89.02-5.81-.01-8.7,0,.65,5.78-.28,8.46-3.65,12.89-.22.3.03,1-.96.69-.36-.11-3.85-5.83-3.97-6.36-.49-2.17.11-4.95-.12-7.21h-8.7v10.04c0,1.02,6.96,9.46,7.51,11.49.17,1.77-7.51,10.68-7.51,11.86v10.04h8.7c-.65-5.77.28-8.46,3.65-12.89.22-.29-.03-1,.96-.69.36.12,3.85,5.83,3.97,6.36.49,2.18-.11,4.95.12,7.22h8.7v-10.04c0-1.2-7.26-9.49-7.51-11.86.2-2.01,6.49-8.63,7.26-11.19ZM273.34,162.21c.7-2.34.27-7.61.25-10.33-2.89.02-5.81-.01-8.7,0,.65,5.78-.28,8.46-3.65,12.89-.22.3.03,1-.96.69-.36-.11-3.85-5.83-3.97-6.36-.49-2.17.11-4.95-.12-7.21h-8.7v10.04c0,1.02,6.96,9.46,7.51,11.49.17,1.77-7.51,10.68-7.51,11.86v10.04h8.7c-.65-5.77.28-8.46,3.65-12.89.22-.29-.03-1,.96-.69.36.12,3.85,5.83,3.97,6.36.49,2.18-.11,4.95.12,7.22h8.7v-10.04c0-1.2-7.26-9.49-7.51-11.86.2-2.01,6.49-8.63,7.26-11.19ZM236.85,157.88c-4.19-6.48-12.81-7.9-19-3.27-1.85,1.38-5.18,5.62-5.18,7.85v32.84h8.7v-8.69h8.7v8.69h8.7v-32.84c0-.25-1.6-4.08-1.93-4.58ZM230.08,177.94h-8.7v-14.39c0-3.59,8.7-4.25,8.7.54v13.84ZM177.86,151.88v8.68h8.7v34.74h8.7v-34.74h8.7v-8.68h-26.11Z"/>
    <path class="cls-3" d="M158.14,295.32c-16.08,2.55-13.12,28.04,4.18,25.87,16.61-2.07,13.74-28.71-4.18-25.87ZM161.13,312.46c-6.06.71-6.64-7.45-1.9-8.48,6.45-1.4,7.46,7.82,1.9,8.48Z"/>
    <rect class="cls-3" x="164.81" y="238.73" width="8.7" height="8.69"/>
    <path class="cls-3" d="M192.95,317.03c-16.15,2.54-13.02,28.04,4.18,25.87,16.64-2.09,13.73-28.69-4.18-25.87ZM195.93,334.17c-6.06.71-6.64-7.45-1.9-8.48,6.45-1.41,7.46,7.82,1.9,8.48Z"/>
    <path class="cls-3" d="M202.48,294.49l-42.83,55.51c-.88-1.14-7.02-4.6-6.78-5.64l43.33-55.63c.74-.19,6.08,3.71,6.45,4.28.41.63.09.93-.17,1.48Z"/>
    <rect class="cls-3" x="164.81" y="273.47" width="65.27" height="8.69"/>
    <rect class="cls-3" x="164.81" y="221.36" width="82.67" height="8.69"/>
    <rect class="cls-3" x="182.21" y="238.73" width="65.27" height="8.69"/>
    <rect class="cls-3" x="164.81" y="256.1" width="82.67" height="8.68"/>
    <rect class="cls-3" x="238.78" y="273.47" width="8.7" height="8.69"/>
    <polygon class="cls-3" points="177.86 151.88 203.97 151.88 203.97 160.56 195.27 160.56 195.27 195.3 186.56 195.3 186.56 160.56 177.86 160.56 177.86 151.88"/>
    <path class="cls-3" d="M236.85,157.88c-4.19-6.48-12.81-7.9-19-3.27-1.85,1.38-5.18,5.62-5.18,7.85v32.84h8.7v-8.69h8.7v8.69h8.7v-32.84c0-.25-1.6-4.08-1.93-4.58ZM230.08,177.94h-8.7v-14.39c0-3.59,8.7-4.25,8.7.54v13.84Z"/>
    <path class="cls-3" d="M247.48,161.92v-10.04h8.7c.22,2.26-.38,5.04.12,7.21.12.53,3.61,6.25,3.97,6.36.99.31.75-.39.96-.69,3.37-4.42,4.3-7.11,3.65-12.89,2.89,0,5.81.03,8.7,0-2.6,1.41-5.25,1.28-8.04.71.19.05.46.13.51.21,1.64,2.37-2.6,13.32-5.42,13.73-1.52.22-4.92-5.61-5.39-7.12-.38-1.25-.57-4.6.1-6.41-1.6.25-5.53.36-7.19-.49.77,2.04.57,8.27.4,8.64-.18.41-.66.61-1.09.77Z"/>
    <path class="cls-3" d="M273.59,185.26v10.04h-8.7c-.22-2.26.38-5.04-.12-7.22-.12-.53-3.61-6.24-3.97-6.36-.99-.31-.75.4-.96.69-3.37,4.42-4.3,7.11-3.65,12.89h-8.7v-10.04c0-1.17,7.67-10.09,7.51-11.86-.54-2.02-7.51-10.46-7.51-11.49.38-.12.94-.25,1.15,0,1.23,1.47,7.29,10.1,7.4,11.36.17,1.74-5.85,10.04-7.34,11.85l-1.09.12c1.38.06,1.17,8.36.98,9.23,1.84-.72,5.32-.62,6.9.23-1.15-1.52-.55-4.74-.08-6.47.5-1.86,3.28-7.34,5.01-7.59,1.52-.22,4.92,5.61,5.39,7.12.43,1.39.61,5.4-.37,6.98,1.57-.99,5.61-.98,7.4-.06-.56-.78-.67-2.1-.34-3.98-.43-2.57-.07-4.39,1.09-5.45Z"/>
    <path class="cls-3" d="M266.08,173.4c.25,2.36,7.51,10.65,7.51,11.86l-1.16-.05c-1.86-2.24-7.74-10.18-7.25-12.62,2.27-3.52,4.61-7,7.03-10.43.52-3.18.62-6.42.3-9.68l1.08-.6c.02,2.73.45,8-.25,10.33-.77,2.56-7.06,9.18-7.26,11.19Z"/>
    <rect class="cls-1" x="164.81" y="221.36" width="82.67" height="8.69"/>
    <rect class="cls-1" x="164.81" y="256.1" width="82.67" height="8.68"/>
    <path class="cls-1" d="M202.48,294.49l-42.83,55.51c-.88-1.14-7.02-4.6-6.78-5.64l43.33-55.63c.74-.19,6.08,3.71,6.45,4.28.41.63.09.93-.17,1.48Z"/>
    <rect class="cls-1" x="182.21" y="238.73" width="65.27" height="8.69"/>
    <rect class="cls-1" x="164.81" y="273.47" width="65.27" height="8.69"/>
    <path class="cls-1" d="M192.95,317.03c-16.15,2.54-13.02,28.04,4.18,25.87,16.64-2.09,13.73-28.69-4.18-25.87ZM195.93,334.17c-6.06.71-6.64-7.45-1.9-8.48,6.45-1.41,7.46,7.82,1.9,8.48Z"/>
    <path class="cls-1" d="M158.14,295.32c-16.08,2.55-13.12,28.04,4.18,25.87,16.61-2.07,13.74-28.71-4.18-25.87ZM161.13,312.46c-6.06.71-6.64-7.45-1.9-8.48,6.45-1.4,7.46,7.82,1.9,8.48Z"/>
    <rect class="cls-1" x="164.81" y="238.73" width="8.7" height="8.69"/>
    <rect class="cls-1" x="238.78" y="273.47" width="8.7" height="8.69"/>
    <path class="cls-1" d="M236.85,157.88c-4.19-6.48-12.81-7.9-19-3.27-1.85,1.38-5.18,5.62-5.18,7.85v32.84h8.7v-8.69h8.7v8.69h8.7v-32.84c0-.25-1.6-4.08-1.93-4.58ZM230.08,177.94h-8.7v-14.39c0-3.59,8.7-4.25,8.7.54v13.84Z"/>
    <path class="cls-1" d="M266.08,173.4c.25,2.36,7.51,10.65,7.51,11.86v10.04h-8.7c-.22-2.26.38-5.04-.12-7.22-.12-.53-3.61-6.24-3.97-6.36-.99-.31-.75.4-.96.69-3.37,4.42-4.3,7.11-3.65,12.89h-8.7v-10.04c0-1.17,7.67-10.09,7.51-11.86-.54-2.02-7.51-10.46-7.51-11.49v-10.04h8.7c.22,2.26-.38,5.04.12,7.21.12.53,3.61,6.25,3.97,6.36.99.31.75-.39.96-.69,3.37-4.42,4.3-7.11,3.65-12.89,2.89,0,5.81.03,8.7,0,.02,2.73.45,8-.25,10.33-.77,2.56-7.06,9.18-7.26,11.19Z"/>
    <polygon class="cls-1" points="203.97 151.88 203.97 160.56 195.27 160.56 195.27 195.3 186.56 195.3 186.56 160.56 177.86 160.56 177.86 151.88 203.97 151.88"/>
  </g>
</svg>